<?xml version="1.0" encoding="UTF-8" standalone="no"?>
<svg
   xmlns:dc="http://purl.org/dc/elements/1.1/"
   xmlns:cc="http://creativecommons.org/ns#"
   xmlns:rdf="http://www.w3.org/1999/02/22-rdf-syntax-ns#"
   xmlns:svg="http://www.w3.org/2000/svg"
   xmlns="http://www.w3.org/2000/svg"
   xmlns:sodipodi="http://sodipodi.sourceforge.net/DTD/sodipodi-0.dtd"
   xmlns:inkscape="http://www.inkscape.org/namespaces/inkscape"
   version="1.1"
   id="svg2"
   xml:space="preserve"
   width="2666.6667"
   height="2666.6667"
   viewBox="0 0 2666.6667 2666.6667"
   sodipodi:docname="shutterstock_1558060391.eps"><metadata
     id="metadata8"><rdf:RDF><cc:Work
         rdf:about=""><dc:format>image/svg+xml</dc:format><dc:type
           rdf:resource="http://purl.org/dc/dcmitype/StillImage" /></cc:Work></rdf:RDF></metadata><defs
     id="defs6" /><sodipodi:namedview
     pagecolor="#ffffff"
     bordercolor="#666666"
     borderopacity="1"
     objecttolerance="10"
     gridtolerance="10"
     guidetolerance="10"
     inkscape:pageopacity="0"
     inkscape:pageshadow="2"
     inkscape:window-width="640"
     inkscape:window-height="480"
     id="namedview4" /><g
     id="g10"
     inkscape:groupmode="layer"
     inkscape:label="ink_ext_XXXXXX"
     transform="matrix(1.3333333,0,0,-1.3333333,0,2666.6667)"><g
       id="g12"
       transform="scale(0.1)"><path
         d="M 20000,0 H 0 V 20000 H 20000 V 0"
         style="fill:#ffffff;fill-opacity:1;fill-rule:nonzero;stroke:none"
         id="path14" /><path
         d="m 9376.78,5486.3 c 2.25,0 2.25,3.5 0,3.5 -2.25,0 -2.26,-3.5 0,-3.5 v 0"
         style="fill:#128C7E;fill-opacity:1;fill-rule:nonzero;stroke:none"
         id="path16" /><path
         d="m 4102.84,16870.2 c 417.35,-376.9 777.34,-829.9 1140.59,-1258.1 179.39,-211.4 352.52,-427.9 529.74,-641.1 67.63,-81.4 188.19,-45.5 288.37,-48.4 143.73,-4.3 287.15,-13.5 430.36,-26.4 14.73,-1.3 24.89,13 25.91,26 23.84,299.7 37.29,600.1 41.32,900.8 0.47,34.8 -53.8,34.8 -54.04,0 -2.07,-300.8 -15.42,-601 -39.11,-900.8 8.64,8.6 17.28,17.2 25.92,25.9 -135.26,12 -270.68,20.9 -406.41,25.3 -61.85,2 -130.7,-6.1 -191.62,3.5 -80.01,12.5 -112.66,65.8 -161.18,125.6 -174.58,215.4 -351.26,429.1 -531.74,639.6 -175.11,204.2 -353.25,406 -532.98,606.1 -168.89,188.1 -333.28,406.9 -539.99,554.6 -19.15,13.7 -42.52,-16.9 -25.14,-32.6 v 0"
         style="fill:#128C7E;fill-opacity:1;fill-rule:nonzero;stroke:none"
         id="path18" /><path
         d="m 4110.99,16877.6 c 758.8,-421.9 1602.02,-666.5 2375.67,-1054.2 28.43,-14.2 49.77,23.8 24.59,42.1 -330.1,239.6 -764.52,347.1 -1139.23,496.4 -421.95,168.1 -824.84,383.5 -1247.1,548.8 -19.26,7.5 -31.54,-23.3 -13.93,-33.1 v 0"
         style="fill:#128C7E;fill-opacity:1;fill-rule:nonzero;stroke:none"
         id="path20" /><path
         d="m 6453.54,16009.3 c -0.57,-70.8 30.2,-142.9 60.18,-205.8 13.47,-28.3 55.49,-3.6 42.06,24.6 -28.9,60.7 -40.55,123.9 -62.99,186.5 -7.36,20.6 -39.06,18.3 -39.25,-5.3 v 0"
         style="fill:#128C7E;fill-opacity:1;fill-rule:nonzero;stroke:none"
         id="path22" /><path
         d="m 4142.67,16894 c 178.61,-96.5 386.06,-152.8 576.21,-223.5 207.72,-77.3 415.05,-155.5 622.46,-233.6 410.83,-154.6 824.76,-339.3 1247.81,-456.7 25.8,-7.1 44.41,32.6 18.77,44.6 -384.91,179.3 -804.44,304.2 -1203.68,448.6 -208.19,75.4 -416.53,150.3 -624.46,226.3 -203.96,74.6 -413.78,174.7 -626.11,220.4 -15.18,3.2 -25.88,-18.1 -11,-26.1 v 0"
         style="fill:#128C7E;fill-opacity:1;fill-rule:nonzero;stroke:none"
         id="path24" /><path
         d="m 4121.64,16897 c 175.27,0.7 354,34 528.42,51.6 176.3,17.7 352.75,34.2 529.33,48.9 344.81,28.8 690.08,52.6 1035.58,71.5 150.93,8.2 391.06,64.5 521.12,-18.9 75.95,-48.7 144.37,-120.8 213.76,-178.7 62.82,-52.5 138.57,-102.6 194.55,-162.4 34.35,-36.6 51.87,-34.6 27.71,-83.6 -16.26,-33 -58.26,-63 -84.02,-90.5 -56.25,-60.2 -112.92,-119.9 -170.04,-179.2 -112.9,-117.2 -248.93,-228.2 -342.87,-361.1 -8.49,-12 8.28,-28.4 20.27,-20.2 121.52,82.5 221.91,204.9 323.93,310.1 114.64,118.2 227.35,238.3 338.67,359.6 8.62,9.4 10.88,26.8 0,35.8 -110.19,92.1 -220.33,184.2 -330.59,276.1 -66.31,55.3 -150.02,157.1 -231.89,185.8 -56.73,19.9 -165.28,-7.3 -227.69,-10.3 -67.46,-3.3 -134.9,-6.8 -202.34,-10.5 -151.73,-8.4 -303.39,-18 -454.98,-28.7 -286.41,-20.1 -572.43,-45 -858.13,-73.5 -273.65,-27.2 -566.13,-35.7 -833.69,-100.3 -12.01,-2.9 -9.35,-21.5 2.9,-21.5 v 0"
         style="fill:#128C7E;fill-opacity:1;fill-rule:nonzero;stroke:none"
         id="path26" /><path
         d="m 6918.91,15810.7 c -7.86,0 -15.8,2 -23.02,6.3 l -11.13,6.7 c -21.28,12.8 -28.18,40.4 -15.38,61.7 12.79,21.3 40.44,28.2 61.69,15.4 l 10.94,-6.6 c 21.31,-12.7 28.28,-40.3 15.54,-61.6 -8.42,-14.1 -23.33,-21.9 -38.64,-21.9"
         style="fill:#128C7E;fill-opacity:1;fill-rule:nonzero;stroke:none"
         id="path28" /><path
         d="m 11828.5,17239 c -9.5,0 -19.2,3 -27.3,9.3 -19.7,15.1 -23.4,43.4 -8.3,63.1 l 15.5,20.2 c 15,19.7 43.3,23.5 63,8.4 19.7,-15 23.5,-43.2 8.5,-63 l -15.7,-20.4 c -8.8,-11.5 -22.2,-17.6 -35.7,-17.6 z m -2314.59,-142 c -2.48,0 -4.99,0.2 -7.5,0.6 -7.58,1.3 -15.18,2.3 -22.78,3.2 -24.67,2.7 -42.49,24.9 -39.78,49.6 2.69,24.7 24.52,42.4 49.61,39.8 9.29,-1.1 18.57,-2.3 27.86,-3.9 24.49,-4.1 41,-27.3 36.88,-51.8 -3.69,-22 -22.73,-37.5 -44.29,-37.5 z m 2188.79,-19.3 c -9.9,0 -19.8,3.2 -28.1,9.8 -19.4,15.5 -22.6,43.8 -7.1,63.2 l 15.8,19.9 c 15.5,19.5 43.7,22.8 63.2,7.3 19.5,-15.4 22.7,-43.6 7.3,-63.1 l -16,-20.2 c -8.9,-11.1 -22,-16.9 -35.1,-16.9 z m -2414.2,-6.4 c -17.24,0 -33.67,9.9 -41.12,26.7 -10.07,22.7 0.15,49.3 22.86,59.4 8.8,3.9 17.69,7.4 26.62,10.7 23.36,8.5 49.11,-3.6 57.61,-27 8.46,-23.3 -3.61,-49.1 -26.95,-57.6 -6.97,-2.5 -13.9,-5.3 -20.8,-8.4 -5.92,-2.6 -12.12,-3.8 -18.22,-3.8 z m 415.57,-46.4 c -7.81,0 -15.71,2.1 -22.91,6.4 -6.83,4 -13.73,7.9 -20.68,11.7 -21.85,11.8 -29.98,39.1 -18.19,60.9 11.84,21.8 39.04,30.1 60.95,18.2 8.01,-4.3 15.96,-8.8 23.84,-13.5 21.35,-12.7 28.38,-40.3 15.71,-61.6 -8.41,-14.2 -23.36,-22.1 -38.72,-22.1 z m -570.77,-83 c -8.85,0 -17.79,2.7 -25.62,8.1 -20.4,14.2 -25.42,42.2 -11.24,62.6 5.4,7.8 11.04,15.4 16.91,22.8 15.44,19.4 43.67,22.7 63.19,7.3 19.45,-15.5 22.71,-43.8 7.28,-63.2 -4.72,-5.9 -9.21,-12 -13.55,-18.3 -8.74,-12.5 -22.74,-19.3 -36.97,-19.3 z m 2439.5,-22.3 c -10.3,0 -20.6,3.5 -29.1,10.7 -18.9,16.1 -21.2,44.4 -5.1,63.4 l 16.3,19.3 c 16,19 44.4,21.5 63.4,5.5 19,-16 21.4,-44.3 5.5,-63.3 l -16.7,-19.8 c -8.9,-10.4 -21.5,-15.8 -34.3,-15.8 z m -1710.9,-23.9 c -12.19,0 -24.34,5 -33.22,14.7 -5.39,5.9 -10.92,11.7 -16.54,17.5 -17.33,17.7 -17.01,46.2 0.73,63.6 17.79,17.3 46.22,17 63.61,-0.8 6.33,-6.4 12.55,-13 18.65,-19.7 16.73,-18.3 15.43,-46.8 -2.91,-63.5 -8.64,-7.9 -19.48,-11.8 -30.32,-11.8 z m 1575.4,-129.4 c -10.9,0 -21.9,4 -30.5,12 -18.2,16.9 -19.3,45.4 -2.4,63.6 l 17,18.5 c 16.8,18.4 45.3,19.7 63.6,3 18.3,-16.8 19.6,-45.2 2.9,-63.6 l -17.6,-19.1 c -8.8,-9.5 -20.9,-14.4 -33,-14.4 z m -2378.27,-13.2 c -2.41,0 -4.87,0.2 -7.33,0.6 -24.51,4 -41.13,27.2 -37.09,51.7 1.51,9.2 3.22,18.3 5.2,27.4 5.27,24.3 29.26,39.6 53.47,34.4 24.29,-5.3 39.67,-29.3 34.4,-53.5 -1.63,-7.6 -3.08,-15.2 -4.34,-22.9 -3.61,-22 -22.68,-37.7 -44.31,-37.7 z m 916.14,-26.8 c -17.03,0 -33.32,9.8 -40.9,26.3 -3.26,7.1 -6.7,14.2 -10.29,21.2 -11.31,22.1 -2.56,49.2 19.55,60.5 22.06,11.3 49.18,2.6 60.47,-19.5 4.2,-8.2 8.2,-16.4 12,-24.7 10.4,-22.6 0.5,-49.3 -22.11,-59.7 -6.07,-2.7 -12.44,-4.1 -18.72,-4.1 z m 1319.33,-106.4 c -11.7,0 -23.5,4.6 -32.3,13.7 -17.3,17.8 -16.8,46.3 1,63.6 l 18,17.6 c 17.7,17.4 46.2,17.1 63.6,-0.5 17.5,-17.7 17.3,-46.2 -0.4,-63.6 l -18.6,-18.2 c -8.8,-8.4 -20,-12.6 -31.3,-12.6 z m -2229.2,-70 c -20.47,0 -38.99,14.1 -43.79,34.9 -2.05,9 -3.91,18.1 -5.54,27.2 -4.39,24.4 11.87,47.8 36.33,52.2 24.49,4.4 47.81,-11.9 52.2,-36.3 1.38,-7.7 2.93,-15.4 4.69,-23 5.54,-24.2 -9.56,-48.3 -33.78,-53.9 -3.38,-0.7 -6.77,-1.1 -10.11,-1.1 z m 970,-18.5 c -21.3,0 -40.2,15.2 -44.17,36.9 -1.45,8 -3.03,15.9 -4.71,23.9 -5.1,24.3 10.43,48.1 34.78,53.2 24.2,5.2 48.1,-10.4 53.2,-34.7 1.9,-8.7 3.6,-17.5 5.2,-26.3 4.5,-24.4 -11.7,-47.8 -36.1,-52.3 -2.8,-0.5 -5.5,-0.7 -8.2,-0.7 z m 1107.7,-48.9 c -12.8,0 -25.5,5.4 -34.4,16 -16,18.9 -13.6,47.3 5.3,63.3 l 19.2,16.4 c 18.9,16.2 47.2,14 63.5,-4.8 16.1,-18.9 14,-47.3 -4.9,-63.4 l -19.7,-16.9 c -8.5,-7.1 -18.8,-10.6 -29,-10.6 z m -1993.86,-117.9 c -14.26,0 -28.26,6.8 -36.99,19.3 -5.24,7.6 -10.31,15.3 -15.23,23.1 -13.23,21 -6.9,48.7 14.1,62 21.08,13.2 48.78,6.9 62.03,-14.1 4.17,-6.7 8.48,-13.2 12.97,-19.7 14.16,-20.4 9.11,-48.4 -11.29,-62.6 -7.83,-5.4 -16.76,-8 -25.59,-8 z m 1832.66,-8 c -14,0 -27.8,6.5 -36.6,18.8 -14.5,20.2 -9.9,48.2 10.3,62.7 6.8,4.9 13.6,9.8 20.3,14.8 20,14.6 48.2,10.3 62.9,-9.7 14.7,-20 10.4,-48.2 -9.7,-62.9 -7,-5.1 -14,-10.2 -21,-15.2 -8,-5.7 -17.2,-8.5 -26.2,-8.5 z m -932.9,-28.9 c -0.6,0 -1.3,0 -2,0 -24.8,1.1 -44,22.1 -42.9,46.9 0.3,8.2 0.6,16.3 0.7,24.4 0.5,24.8 22,44.6 45.8,44.2 24.8,-0.5 44.6,-20.9 44.1,-45.8 -0.1,-8.9 -0.4,-17.8 -0.8,-26.7 -1,-24.2 -20.9,-43 -44.9,-43 z m 761,-82 c -15.5,0 -30.7,8 -39,22.5 -12.4,21.5 -5,49 16.5,61.4 7.2,4.2 14.4,8.4 21.6,12.6 21.4,12.7 48.9,5.7 61.6,-15.6 12.7,-21.4 5.7,-49 -15.7,-61.7 -7.5,-4.4 -15,-8.8 -22.6,-13.2 -7.1,-4.1 -14.8,-6 -22.4,-6 z m -1520.74,-29.1 c -9.82,0 -19.68,3.2 -27.93,9.7 -7.1,5.7 -14.08,11.4 -20.93,17.2 -18.92,16.1 -21.2,44.5 -5.12,63.4 16.14,18.9 44.49,21.2 63.39,5.1 6.09,-5.1 12.27,-10.2 18.56,-15.2 19.45,-15.5 22.71,-43.8 7.26,-63.2 -8.86,-11.2 -21.99,-17 -35.23,-17 z m 1338.64,-64 c -17.2,0 -33.7,9.9 -41.1,26.6 -10.1,22.7 0,49.3 22.7,59.4 7.6,3.4 15.1,6.8 22.7,10.3 22.5,10.5 49.2,0.7 59.7,-21.8 10.4,-22.5 0.7,-49.3 -21.9,-59.7 -7.9,-3.7 -15.8,-7.3 -23.8,-10.9 -6,-2.6 -12.2,-3.9 -18.3,-3.9 z m -608.2,-27.1 c -3.5,0 -7.1,0.4 -10.7,1.3 -24.12,5.9 -38.87,30.2 -32.95,54.3 1.96,8 3.82,16 5.6,24.1 5.39,24.2 29.45,39.5 53.65,34.1 24.3,-5.4 39.5,-29.5 34.1,-53.7 -1.9,-8.7 -3.9,-17.3 -6,-25.9 -5,-20.5 -23.4,-34.2 -43.7,-34.2 z m -556.7,-16.2 c -6.42,0 -12.95,1.4 -19.12,4.3 -8.13,3.9 -16.16,7.8 -24.17,11.8 -22.15,11.3 -31.01,38.3 -19.79,60.5 11.24,22.2 38.31,31 60.44,19.8 7.21,-3.7 14.48,-7.2 21.81,-10.7 22.48,-10.6 32.12,-37.4 21.53,-59.8 -7.65,-16.3 -23.84,-25.9 -40.7,-25.9 z m 973.9,-29.9 c -19,0 -36.7,12.2 -42.8,31.3 -7.6,23.6 5.4,48.9 29.1,56.5 7.9,2.6 15.8,5.2 23.7,7.8 23.6,7.9 49.1,-4.8 56.9,-28.3 7.9,-23.6 -4.8,-49.1 -28.3,-57 -8.3,-2.7 -16.6,-5.5 -24.9,-8.1 -4.5,-1.5 -9.1,-2.2 -13.7,-2.2 z m -781.39,-38.6 c -3.66,0 -7.42,0.4 -11.14,1.4 -8.55,2.2 -17.09,4.4 -25.62,6.8 -23.94,6.6 -37.94,31.4 -31.31,55.4 6.65,23.9 31.46,37.9 55.35,31.3 7.93,-2.3 15.86,-4.4 23.81,-6.4 24.07,-6.1 38.6,-30.6 32.45,-54.7 -5.19,-20.3 -23.46,-33.8 -43.54,-33.8 z m 583.29,-11.9 c -21.2,0 -40,15 -44.1,36.5 -4.7,24.4 11.3,48 35.7,52.6 8.1,1.6 16.3,3.2 24.4,4.9 24.3,4.9 48.1,-10.7 53.1,-35 5.1,-24.3 -10.6,-48.1 -34.9,-53.1 -8.6,-1.8 -17.2,-3.5 -25.7,-5.1 -2.9,-0.6 -5.7,-0.8 -8.5,-0.8 z m -381.69,-21.8 c -1.25,0 -2.48,0.1 -3.76,0.2 -8.81,0.7 -17.59,1.5 -26.4,2.4 -24.69,2.6 -42.63,24.7 -40.07,49.4 2.53,24.7 24.56,42.6 49.35,40.1 8.16,-0.9 16.34,-1.6 24.54,-2.3 24.75,-2.1 43.14,-23.8 41.11,-48.5 -1.94,-23.5 -21.61,-41.3 -44.77,-41.3 z m 95.81,-74.8 c -6.15,0 -12.38,1.3 -18.35,3.9 -22.68,10.2 -32.82,36.8 -22.68,59.4 3.39,7.6 6.67,15.1 9.91,22.7 9.71,22.9 36.08,33.5 58.97,23.8 4.89,-2 9.21,-4.9 12.9,-8.3 -1.51,4.1 -2.44,8.6 -2.69,13.3 -1.23,24.8 17.82,45.9 42.62,47.1 8.2,0.4 16.5,0.9 24.6,1.5 24.3,1.7 46.3,-16.9 48.1,-41.7 1.7,-24.8 -16.9,-46.3 -41.7,-48 -8.8,-0.6 -17.6,-1.2 -26.4,-1.6 -12.6,-0.7 -24.3,3.9 -32.8,11.9 3.8,-10.4 3.8,-22.2 -0.8,-33.1 -3.5,-8.2 -7.02,-16.3 -10.61,-24.3 -7.47,-16.7 -23.89,-26.6 -41.07,-26.6 z m -99.37,-178.6 c -8.63,0 -17.37,2.5 -25.07,7.7 -20.6,13.9 -26.05,41.8 -12.17,62.4 4.59,6.8 9.11,13.7 13.57,20.6 13.43,20.9 41.21,26.9 62.16,13.4 20.88,-13.4 26.87,-41.3 13.42,-62.1 -4.76,-7.4 -9.63,-14.8 -14.57,-22.2 -8.69,-12.8 -22.89,-19.8 -37.34,-19.8 z M 7095.3,15707 c -7.63,0 -15.34,2 -22.42,6 l -22.18,12.8 c -21.51,12.5 -28.85,40 -16.43,61.5 12.42,21.5 39.94,28.8 61.44,16.4 l 22.09,-12.8 c 21.51,-12.4 28.9,-39.8 16.49,-61.4 -8.33,-14.4 -23.45,-22.5 -38.99,-22.5 z m 178.56,-99.9 c -7.24,0 -14.58,1.7 -21.38,5.4 l -22.63,12.3 c -21.79,12 -29.79,39.3 -17.87,61.1 11.91,21.8 39.25,29.8 61.03,17.8 l 22.31,-12.1 c 21.84,-11.8 29.94,-39.1 18.11,-61 -8.14,-15 -23.6,-23.5 -39.57,-23.5 z m 2451.41,-12.5 c -11.19,0 -22.41,4.1 -31.11,12.5 -17.94,17.2 -18.52,45.7 -1.33,63.6 5.67,5.9 11.26,11.9 16.81,17.9 16.81,18.3 45.29,19.5 63.54,2.7 18.29,-16.8 19.49,-45.2 2.71,-63.5 -6,-6.5 -12.05,-13 -18.17,-19.4 -8.84,-9.2 -20.63,-13.8 -32.45,-13.8 z m -2269.82,-81.8 c -6.72,0 -13.53,1.5 -19.94,4.7 l -23.09,11.5 c -22.19,11.1 -31.16,38.1 -20.02,60.3 11.13,22.2 38.12,31.1 60.35,20.1 l 22.71,-11.4 c 22.26,-11 31.34,-38 20.31,-60.2 -7.85,-15.9 -23.77,-25 -40.32,-25 z m 2115.78,-52.4 c -13.96,0 -27.71,6.5 -36.49,18.7 -14.53,20.1 -9.99,48.2 10.14,62.8 6.62,4.7 13.22,9.6 19.75,14.5 19.77,15 48,11.1 62.98,-8.7 14.98,-19.8 11.07,-48 -8.73,-63 -7.08,-5.3 -14.18,-10.6 -21.36,-15.8 -7.95,-5.7 -17.16,-8.5 -26.29,-8.5 z m -1930.45,-34.3 c -6.03,0 -12.17,1.2 -18.04,3.8 l -23.65,10.5 c -22.68,10.1 -32.86,36.7 -22.74,59.3 10.12,22.7 36.71,32.9 59.38,22.8 l 23.15,-10.3 c 22.74,-9.9 33.08,-36.5 23.11,-59.2 -7.41,-16.9 -23.9,-26.9 -41.21,-26.9 z m 1755.7,-71.7 c -16.41,0 -32.22,9 -40.15,24.7 -11.22,22.1 -2.36,49.2 19.8,60.4 7.38,3.7 14.7,7.5 22.03,11.4 21.98,11.6 49.16,3.2 60.77,-18.8 11.6,-21.9 3.19,-49.1 -18.76,-60.7 -7.78,-4.1 -15.56,-8.2 -23.39,-12.1 -6.53,-3.3 -13.45,-4.9 -20.3,-4.9 z m -1566.08,-5.1 c -5.22,0 -10.49,0.9 -15.66,2.8 l -24.25,9.1 c -23.21,8.8 -34.89,34.8 -26.09,58 8.81,23.2 34.75,34.9 57.99,26.1 l 23.67,-8.9 c 23.28,-8.7 35.13,-34.6 26.5,-57.8 -6.73,-18.2 -23.92,-29.3 -42.16,-29.3 z m 194.07,-64.7 c -4.19,0 -8.46,0.6 -12.67,1.8 -8.33,2.5 -16.64,5 -24.95,7.5 -23.76,7.2 -37.16,32.3 -29.91,56.1 7.23,23.8 32.42,37.1 56.11,29.9 8.01,-2.4 16.01,-4.8 24.04,-7.2 23.84,-7 37.49,-31.9 30.51,-55.8 -5.74,-19.6 -23.68,-32.3 -43.13,-32.3 z m 1183.41,-9 c -18.77,0 -36.28,11.8 -42.61,30.6 -7.93,23.5 4.72,49 28.26,57 7.83,2.6 15.63,5.3 23.43,8.1 23.24,8.4 49.11,-3.9 57.44,-27.3 8.33,-23.4 -3.86,-49.1 -27.27,-57.4 -8.26,-3 -16.57,-5.9 -24.9,-8.7 -4.74,-1.6 -9.61,-2.3 -14.35,-2.3 z m -985.1,-41.1 c -3.06,0 -6.15,0.3 -9.24,0.9 l -25.64,5.6 c -24.24,5.4 -39.47,29.4 -34.05,53.7 5.44,24.2 29.53,39.4 53.72,34 l 24.34,-5.2 c 24.32,-5.1 39.9,-28.9 34.83,-53.2 -4.41,-21.2 -23.13,-35.8 -43.96,-35.8 z m 787.44,-11.5 c -21,0 -39.8,14.9 -44.04,36.2 -4.86,24.4 10.94,48.1 35.31,52.9 8.18,1.7 16.31,3.3 24.44,5.1 24.52,5.1 48.18,-10.3 53.37,-34.6 5.2,-24.3 -10.26,-48.2 -34.55,-53.4 -8.53,-1.8 -17.11,-3.6 -25.69,-5.3 -2.97,-0.6 -5.93,-0.9 -8.84,-0.9 z m -585.49,-21 c -1.68,0 -3.37,0.1 -5.07,0.3 -8.66,1 -17.32,2 -25.95,3.1 -24.64,3.1 -42.13,25.5 -39.04,50.2 3.06,24.6 25.29,42.1 50.18,39 8.26,-1 16.54,-2 24.85,-2.9 24.69,-2.8 42.43,-25 39.67,-49.7 -2.59,-23 -22.06,-40 -44.64,-40 z m 382.89,-6.9 c -23.21,0 -42.91,17.8 -44.76,41.4 -1.99,24.8 16.48,46.4 41.25,48.4 8.28,0.6 16.56,1.4 24.82,2.1 25.21,2.3 46.67,-15.8 49,-40.5 2.34,-24.7 -15.81,-46.6 -40.52,-49 -8.71,-0.8 -17.44,-1.6 -26.18,-2.3 -1.2,-0.1 -2.4,-0.1 -3.61,-0.1 z m -178.81,-5.9 c -0.2,0 -0.4,0 -0.6,0 -8.69,0.1 -17.39,0.3 -26.1,0.5 -24.82,0.6 -44.44,21.3 -43.81,46.1 0.6,24.8 20.72,45.1 46.07,43.8 8.35,-0.2 16.71,-0.3 25.04,-0.5 24.82,-0.3 44.69,-20.7 44.37,-45.5 -0.33,-24.7 -20.41,-44.4 -44.97,-44.4"
         style="fill:#128C7E;fill-opacity:1;fill-rule:nonzero;stroke:none"
         id="path30" /><path
         d="m 11953.7,17403.8 c -9.5,0 -19,3 -27.2,9.1 -19.8,15 -23.7,43.2 -8.7,63 l 7.8,10.2 c 15,19.8 43.2,23.7 63,8.7 19.8,-15 23.7,-43.2 8.7,-63 l -7.8,-10.2 c -8.8,-11.7 -22.2,-17.8 -35.8,-17.8"
         style="fill:#128C7E;fill-opacity:1;fill-rule:nonzero;stroke:none"
         id="path32" /><path
         d="m 14653.1,13295.6 c -73.7,-178.5 -103.5,-385.2 -149.2,-572.8 -42.2,-173.7 -107,-356.1 -120.9,-534.5 -1.8,-22.6 28.8,-22.2 36.1,-4.9 74.8,177.5 102.6,386 148,573.1 42.2,174.1 104.5,355.9 119.8,534.5 1.8,21.1 -27.1,20.9 -33.8,4.6 v 0"
         style="fill:#128C7E;fill-opacity:1;fill-rule:nonzero;stroke:none"
         id="path34" /><path
         d="m 14854,12895.2 c -103.8,-98.4 -179.5,-234.5 -259.3,-352.7 -76.7,-113.5 -187.2,-241.2 -219.6,-375.6 -3.8,-15.7 14.9,-26.4 26.7,-15.5 97.3,89.6 158.7,230.5 232.5,340.3 82.7,122.8 190.8,243.9 251.6,378.9 9.1,20.2 -14.2,41.3 -31.9,24.6 v 0"
         style="fill:#128C7E;fill-opacity:1;fill-rule:nonzero;stroke:none"
         id="path36" /><path
         d="m 14676.7,13275.1 c -1.5,123.8 -68.2,252.6 -110.6,367.5 -50,135.6 -101,270.8 -152.5,405.8 -14.9,-11.4 -29.7,-22.9 -44.6,-34.3 569.2,-256.7 1112.1,-565 1652.8,-876.2 267.2,-153.7 535.1,-306.2 805.6,-454.1 257.9,-141 529.2,-314.6 809.9,-404.4 20,-6.4 30.4,22 13.8,32.7 -131.1,84.5 -281.6,145.6 -420.1,217.7 -133.1,69.3 -265.1,140.7 -396.3,213.4 -269.7,149.4 -535.5,305.5 -802.6,459.3 -533.8,307.3 -1070.2,611.3 -1632.5,864.1 -21.2,9.5 -55.1,-6.8 -44.6,-34.3 54.7,-142.9 108.7,-286.1 161.8,-429.6 41.1,-110.8 70.5,-240.9 144.8,-333.8 4.9,-6.2 15.2,-0.9 15.1,6.2 v 0"
         style="fill:#128C7E;fill-opacity:1;fill-rule:nonzero;stroke:none"
         id="path38" /><path
         d="m 14843.4,12870.9 c 56.3,-211.9 147.2,-416.3 225.8,-620.8 79.2,-205.9 158.9,-411.5 238.4,-617.3 6.1,-15.9 21.4,-27.7 39.4,-22.4 760.9,224.5 1524.9,441.8 2291,647.7 29.4,7.9 17,53.2 -12.5,45.6 -769,-197.6 -1533.9,-406.6 -2295.5,-631.5 13.1,-7.4 26.3,-14.9 39.4,-22.4 -82.6,213.7 -164.8,427.5 -247.8,641.1 -77.3,198.7 -145.7,404.8 -243.7,594.6 -10,19.2 -39.9,5.8 -34.5,-14.6 v 0"
         style="fill:#128C7E;fill-opacity:1;fill-rule:nonzero;stroke:none"
         id="path40" /><path
         d="m 14383.5,12167.5 c 87.4,-53.3 217.6,-24.9 316.7,-24.5 136.9,0.5 275.1,-0.1 411.8,9.6 35,2.4 35.6,53.3 0,54.9 -136.8,6.1 -274.9,1.9 -411.8,-1.2 -99.9,-2.2 -230.5,23 -316.7,-32.6 -2.3,-1.5 -2.4,-4.8 0,-6.2 v 0"
         style="fill:#128C7E;fill-opacity:1;fill-rule:nonzero;stroke:none"
         id="path42" /><path
         d="m 14868,12850.8 c 235.1,-50.2 469.1,-77.8 702.3,-142.1 216.3,-59.7 430.3,-128 648.4,-181.6 455.7,-112 923.7,-165.8 1381.8,-266.2 21.9,-4.7 30.8,26.9 9.3,33.7 -455.9,143.8 -934.5,185 -1397.7,298.9 -225.8,55.6 -447.4,126.5 -671.8,187.4 -210.9,57.2 -445.6,128.5 -665.8,117.7 -26.2,-1.3 -34.6,-41.8 -6.5,-47.8 v 0"
         style="fill:#128C7E;fill-opacity:1;fill-rule:nonzero;stroke:none"
         id="path44" /><path
         d="m 14654.3,13274.2 c 209.2,-103.4 441.5,-170.7 661.7,-247.7 235.9,-82.6 472.7,-162.2 709.5,-241.8 483.6,-162.4 964.1,-329.3 1457.7,-458.5 1.5,-0.4 2,1.7 0.7,2.3 -465.1,191.9 -941.7,347.1 -1418.5,507.2 -228.9,76.9 -457.9,153.8 -686,233.2 -234.4,81.7 -466.7,184.9 -705.4,252 -27.2,7.6 -46.2,-33.6 -19.7,-46.7 v 0"
         style="fill:#128C7E;fill-opacity:1;fill-rule:nonzero;stroke:none"
         id="path46" /><path
         d="m 16384.4,16014.6 c -5.4,0 -11,1 -16.4,3.1 l -11.8,4.6 c -23.1,8.9 -34.7,34.9 -25.8,58.1 8.9,23.1 34.9,34.7 58.1,25.8 l 12.3,-4.8 c 23.1,-9 34.5,-35.1 25.5,-58.2 -6.9,-17.8 -23.9,-28.6 -41.9,-28.6"
         style="fill:#128C7E;fill-opacity:1;fill-rule:nonzero;stroke:none"
         id="path48" /><path
         d="m 15591.9,16175.3 c -0.5,0 -1,0 -1.5,0.1 -8.5,0.2 -16.9,0.5 -25.4,0.7 -24.8,0.6 -44.4,21.2 -43.8,46 0.5,24.8 21.8,44.9 45.9,43.9 8.8,-0.2 17.5,-0.5 26.3,-0.8 24.8,-0.8 44.2,-21.6 43.4,-46.4 -0.8,-24.3 -20.8,-43.5 -44.9,-43.5 z m -232.1,-2.6 c -23.7,0 -43.5,18.5 -44.8,42.4 -1.4,24.8 17.6,46.1 42.4,47.4 l 26.1,1.4 c 25.8,1.3 45.9,-18 47,-42.9 1.2,-24.8 -18,-45.8 -42.8,-47 l -25.3,-1.3 c -0.9,0 -1.7,0 -2.6,0 z m 437.8,-12.8 c -1.7,0 -3.5,0.1 -5.2,0.3 -8.4,1 -16.8,2 -25.2,2.8 -24.7,2.7 -42.6,24.8 -40,49.5 2.6,24.7 24.9,42.6 49.5,40 8.7,-0.9 17.4,-1.9 26.1,-2.9 24.6,-2.9 42.3,-25.2 39.4,-49.9 -2.6,-22.9 -22.1,-39.8 -44.6,-39.8 z m -643.1,-6.9 c -22.2,0 -41.5,16.4 -44.5,39 -3.4,24.6 13.9,47.2 38.5,50.6 8.6,1.1 17.3,2.3 26,3.3 24.5,3.2 47.1,-14.3 50.2,-39 3.1,-24.6 -14.4,-47.1 -39,-50.2 -8.4,-1 -16.8,-2.1 -25.1,-3.3 -2.1,-0.2 -4.1,-0.4 -6.1,-0.4 z m 846.8,-25.6 c -3,0 -6,0.3 -9,0.9 -8.3,1.7 -16.5,3.4 -24.8,4.9 -24.4,4.7 -40.3,28.3 -35.7,52.7 4.7,24.4 28.3,40.4 52.7,35.7 8.6,-1.7 17.2,-3.4 25.8,-5.1 24.3,-5 40,-28.7 35,-53.1 -4.3,-21.3 -23,-36 -44,-36 z m -1050.1,-9.7 c -20.7,0 -39.4,14.4 -43.9,35.5 -5.2,24.3 10.3,48.2 34.6,53.4 l 25.7,5.4 c 24.2,4.9 48,-10.8 53,-35.1 5,-24.4 -10.7,-48.1 -35.1,-53.1 l -24.8,-5.1 c -3.2,-0.7 -6.3,-1 -9.5,-1 z m 1250.3,-40.2 c -4.3,0 -8.6,0.6 -12.8,1.8 l -24.4,7.1 c -23.9,6.8 -37.7,31.7 -30.9,55.6 6.9,23.9 31.8,37.7 55.6,30.9 8.4,-2.4 16.8,-4.8 25.2,-7.3 23.8,-7.1 37.4,-32.1 30.4,-55.9 -5.8,-19.6 -23.7,-32.2 -43.1,-32.2 z m -1450.2,-10.6 c -19.5,0 -37.4,12.7 -43.2,32.3 -6.9,23.9 6.7,48.9 30.6,55.8 l 25.1,7.3 c 24,6.8 48.8,-7.1 55.6,-31 6.7,-23.9 -7.1,-48.7 -31,-55.5 l -24.5,-7.1 c -4.2,-1.2 -8.4,-1.8 -12.6,-1.8 z m -195.5,-65.7 c -18.2,0 -35.3,11 -42.1,29 -8.8,23.3 2.9,49.2 26.1,58 l 24.6,9.2 c 23.2,8.5 49.1,-3.4 57.7,-26.7 8.6,-23.3 -3.3,-49.2 -26.7,-57.7 l -23.7,-8.9 c -5.3,-2 -10.7,-2.9 -15.9,-2.9 z m -190,-80.5 c -16.9,0 -33.1,9.6 -40.7,25.9 -10.6,22.4 -1,49.2 21.5,59.8 8,3.7 15.9,7.4 23.9,11.1 22.6,10.2 49.3,0.3 59.6,-22.3 10.3,-22.5 0.4,-49.2 -22.2,-59.5 -7.7,-3.5 -15.4,-7.1 -23,-10.7 -6.2,-2.9 -12.7,-4.3 -19.1,-4.3 z m -183.3,-94.8 c -15.6,0 -30.8,8.2 -39.1,22.8 -12.3,21.5 -4.8,49 16.8,61.3 7.6,4.3 15.3,8.6 22.9,12.9 21.8,12 49.1,4.2 61.2,-17.5 12,-21.7 4.2,-49.1 -17.5,-61.2 -7.4,-4 -14.7,-8.2 -22,-12.3 -7.1,-4 -14.7,-6 -22.3,-6 z m -175.2,-108.7 c -14.5,0 -28.6,6.9 -37.3,19.7 -13.9,20.6 -8.6,48.6 12,62.5 l 21.8,14.6 c 20.7,13.7 48.6,8.1 62.3,-12.7 13.7,-20.7 8.1,-48.6 -12.6,-62.3 l -21.1,-14.1 c -7.7,-5.2 -16.5,-7.7 -25.1,-7.7 z m -166.1,-122.5 c -13.1,0 -26.2,5.7 -35.1,16.8 -15.5,19.4 -12.4,47.7 7,63.2 l 20.5,16.3 c 19.5,15.4 47.8,12 63.1,-7.5 15.4,-19.5 12.1,-47.8 -7.5,-63.1 l -19.9,-15.9 c -8.3,-6.6 -18.2,-9.8 -28.1,-9.8 z m -155.3,-135.8 c -11.8,0 -23.7,4.7 -32.5,14 -17.2,18 -16.5,46.4 1.5,63.5 6.4,6.1 12.7,12.1 19.2,18.1 18.2,16.9 46.6,15.9 63.5,-2.3 16.9,-18.2 15.9,-46.7 -2.3,-63.6 -6.1,-5.7 -12.3,-11.5 -18.4,-17.3 -8.7,-8.3 -19.8,-12.4 -31,-12.4 z m -143.1,-148.5 c -10.6,0 -21.2,3.7 -29.8,11.3 -18.6,16.5 -20.3,44.9 -3.9,63.5 l 17.5,19.5 c 16.6,18.4 45,20 63.5,3.3 18.4,-16.6 19.9,-45.1 3.3,-63.5 l -16.9,-18.9 c -8.9,-10.1 -21.3,-15.2 -33.7,-15.2 z m -129.5,-160.5 c -9.2,0 -18.6,2.9 -26.6,8.8 -20,14.7 -24.3,42.8 -9.6,62.8 5.2,7.1 10.4,14.1 15.7,21.1 14.9,19.9 43.2,23.8 63,8.9 19.8,-15 23.8,-43.1 8.8,-63 -5,-6.7 -10,-13.5 -15,-20.3 -8.9,-11.9 -22.5,-18.3 -36.3,-18.3 z m -545.5,-11.5 c -0.3,0 -0.7,0 -1,0 -8.3,0.1 -16.6,0.3 -25,0.3 -24.8,0.1 -44.9,20.3 -44.8,45.2 0.1,24.7 20.3,44.7 45,44.7 0.1,0 0.1,0 0.2,0 8.9,0 17.7,-0.1 26.6,-0.3 24.8,-0.6 44.5,-21.1 44,-46 -0.6,-24.5 -20.6,-43.9 -45,-43.9 z m -231.5,-13.8 c -22,0 -41.3,16.2 -44.5,38.6 -3.4,24.6 13.6,47.4 38.2,50.9 8.8,1.2 17.6,2.4 26.5,3.5 24.9,2.9 47,-14.6 50,-39.2 3.1,-24.7 -14.5,-47.1 -39.1,-50.1 -8.3,-1 -16.5,-2.1 -24.7,-3.3 -2.1,-0.3 -4.3,-0.4 -6.4,-0.4 z m 436.7,-6.5 c -2.6,0 -5.3,0.2 -7.9,0.7 -8.2,1.4 -16.4,2.8 -24.6,4.1 -24.6,3.9 -41.3,26.9 -37.4,51.4 3.9,24.6 26.8,41.4 51.4,37.4 8.8,-1.4 17.6,-2.8 26.3,-4.4 24.5,-4.3 40.8,-27.7 36.4,-52.1 -3.9,-21.8 -22.8,-37.1 -44.2,-37.1 z m -638.4,-36.4 c -19.5,0 -37.5,12.8 -43.2,32.6 -6.8,23.8 7,48.7 30.9,55.6 8.5,2.4 17.1,4.8 25.6,7.1 24,6.4 48.6,-7.9 55.1,-31.9 6.4,-23.9 -7.9,-48.6 -31.9,-55 -8,-2.2 -16,-4.4 -24.1,-6.7 -4.1,-1.2 -8.3,-1.7 -12.4,-1.7 z m -193.7,-70.5 c -17.2,0 -33.6,9.9 -41.1,26.6 -10.1,22.7 0.1,49.3 22.8,59.4 8.1,3.6 16.2,7.2 24.4,10.6 23,9.7 49.3,-0.9 59,-23.8 9.7,-22.9 -1,-49.3 -23.9,-59 -7.6,-3.2 -15.3,-6.5 -22.9,-9.9 -5.9,-2.7 -12.1,-3.9 -18.3,-3.9 z m 1218.5,-31.9 c -7.6,0 -15.3,1.9 -22.4,6 -7.1,4.1 -14.3,8.1 -21.6,12.1 -21.8,11.8 -29.9,39.1 -18,60.9 11.8,21.9 39.2,29.9 60.9,18.1 7.9,-4.3 15.7,-8.7 23.5,-13.1 21.5,-12.4 29,-39.9 16.6,-61.4 -8.3,-14.5 -23.5,-22.6 -39,-22.6 z m -159.4,-1.7 c -7.6,0 -15.2,1.9 -22.3,5.9 -21.5,12.3 -29,39.8 -16.7,61.3 3.9,6.9 7.9,13.8 11.9,20.6 -5.8,-0.2 -10.6,0.8 -15.8,2.6 -7.8,2.8 -15.7,5.5 -23.6,8.1 -23.5,7.9 -36.2,33.4 -28.4,56.9 7.9,23.6 33.4,36.2 56.9,28.4 8.5,-2.8 16.9,-5.7 25.2,-8.7 23.4,-8.3 35.7,-34 27.3,-57.4 -0.7,-1.9 -1.5,-3.7 -2.3,-5.5 8.1,0.2 16.3,-1.9 23.8,-6.3 21.3,-12.7 28.4,-40.3 15.7,-61.6 -4.3,-7.2 -8.5,-14.4 -12.6,-21.6 -8.3,-14.6 -23.5,-22.7 -39.1,-22.7 z m -1240.9,-63.6 c -15,0 -29.6,7.4 -38.1,21 -13.3,21 -7,48.8 14,62 7.5,4.8 15.1,9.4 22.7,14 21.3,12.9 48.9,6.1 61.7,-15.1 12.9,-21.3 6.1,-48.9 -15.1,-61.8 -7.1,-4.3 -14.2,-8.7 -21.3,-13.2 -7.4,-4.7 -15.7,-6.9 -23.9,-6.9 z m 1567.8,-54.6 c -11.1,0 -22.1,4.1 -30.8,12.2 -5.8,5.5 -11.7,10.8 -17.8,16 -18.8,16.2 -20.9,44.6 -4.7,63.4 16.2,18.9 44.6,21 63.4,4.8 7,-6.1 13.8,-12.2 20.6,-18.6 18.1,-17 19,-45.4 2.1,-63.5 -8.9,-9.5 -20.9,-14.3 -32.8,-14.3 z m -1733.3,-68.3 c -12.6,0 -25.1,5.2 -34,15.4 -16.3,18.8 -14.3,47.2 4.4,63.5 6.7,5.8 13.5,11.6 20.3,17.3 19.1,15.9 47.4,13.4 63.4,-5.6 15.9,-19.1 13.4,-47.5 -5.7,-63.4 -6.3,-5.3 -12.7,-10.7 -18.9,-16.2 -8.5,-7.4 -19.1,-11 -29.5,-11 z m 1319.9,-0.6 c -4.9,0 -9.9,0.8 -14.8,2.5 -23.4,8.2 -35.9,33.8 -27.7,57.3 2.9,8.5 6,17 9.2,25.4 8.8,23.3 34.8,34.9 58,26.1 23.2,-8.8 34.9,-34.7 26.1,-58 -2.9,-7.6 -5.7,-15.3 -8.4,-23 -6.4,-18.6 -23.8,-30.3 -42.4,-30.3 z m 541,-92.4 c -15.5,0 -30.6,8 -38.9,22.4 -4.1,7 -8.3,13.9 -12.6,20.7 -13.2,21.1 -6.8,48.8 14.2,62 21.1,13.2 48.8,6.9 62,-14.1 4.8,-7.8 9.6,-15.5 14.1,-23.4 12.5,-21.5 5.2,-49 -16.3,-61.5 -7.1,-4.1 -14.8,-6.1 -22.5,-6.1 z m -2005,-54.4 c -10.1,0 -20.2,3.4 -28.6,10.3 -19.2,15.8 -21.9,44.2 -6.1,63.3 5.7,6.9 11.5,13.7 17.4,20.5 16.2,18.8 44.5,20.9 63.4,4.6 18.8,-16.3 20.8,-44.6 4.6,-63.5 -5.4,-6.2 -10.8,-12.5 -16,-18.8 -8.9,-10.8 -21.8,-16.4 -34.7,-16.4 z m 1423.3,-54.7 c -0.7,0 -1.4,0 -2.1,0.1 -24.7,1.1 -44,22.1 -42.9,46.8 0.4,9.3 1,18.5 1.8,27.8 2.2,24.7 23.8,43.1 48.8,40.8 24.7,-2.2 43,-24 40.8,-48.7 -0.7,-7.9 -1.2,-15.9 -1.6,-23.8 -1,-24.1 -20.9,-43 -44.8,-43 z m 656.6,-82.2 c -20.9,0 -39.7,14.7 -44,36 -1.6,7.7 -3.4,15.3 -5.3,23 -6.1,24.1 8.4,48.6 32.5,54.7 24.1,6.1 48.5,-8.4 54.6,-32.5 2.4,-9.1 4.4,-18.2 6.3,-27.2 5,-24.4 -10.7,-48.1 -35.1,-53.1 -3,-0.6 -6,-0.9 -9,-0.9 z m -2197.6,-32.4 c -7.6,0 -15.4,2 -22.6,6.1 -21.4,12.6 -28.7,40.1 -16.2,61.5 4.5,7.7 9,15.3 13.6,22.9 12.9,21.2 40.5,28 61.8,15.1 21.2,-12.8 28,-40.5 15.1,-61.7 -4.3,-7.2 -8.6,-14.4 -12.8,-21.6 -8.3,-14.3 -23.4,-22.3 -38.9,-22.3 z m 1571.9,-87.8 c -17.8,0 -34.5,10.5 -41.7,27.9 -3.6,8.9 -7,17.9 -10,27 -7.9,23.6 4.9,49.1 28.5,56.9 23.6,7.9 49,-4.9 56.8,-28.5 2.4,-7.1 5.1,-14.2 7.9,-21.3 9.5,-22.9 -1.5,-49.2 -24.5,-58.6 -5.6,-2.3 -11.4,-3.4 -17,-3.4 z m 616.1,-83.3 c -5.1,0 -10.4,0.9 -15.5,2.8 -23.3,8.6 -35.3,34.4 -26.7,57.7 2.5,6.8 4.7,13.7 6.6,20.7 6.4,24 31.1,38.3 55.1,31.8 24,-6.4 38.2,-31.1 31.8,-55.1 -2.6,-9.6 -5.7,-19.1 -9.1,-28.4 -6.7,-18.2 -23.9,-29.5 -42.2,-29.5 z m -2277,-14.8 c -5.4,0 -10.9,1 -16.3,3.1 -23.1,9 -34.6,35 -25.6,58.2 3.2,8.2 6.5,16.5 9.8,24.7 9.5,23 35.7,34 58.7,24.6 23,-9.4 34,-35.7 24.5,-58.7 -3.1,-7.7 -6.2,-15.4 -9.2,-23.2 -6.9,-17.8 -23.9,-28.7 -41.9,-28.7 z m 1782.8,-65.9 c -10.2,0 -20.5,3.4 -28.9,10.5 -7.2,6.1 -14.2,12.4 -21.1,18.8 -18.1,17 -19,45.5 -2,63.6 17,18.1 45.5,19 63.6,1.9 5.6,-5.3 11.4,-10.4 17.3,-15.4 19.1,-16 21.6,-44.3 5.6,-63.4 -8.9,-10.6 -21.7,-16 -34.5,-16 z m 359.3,-68.9 c -16.5,0 -32.5,9.2 -40.3,25.1 -11,22.3 -1.8,49.3 20.4,60.3 6.3,3.1 12.5,6.5 18.6,10.3 21.1,13.2 48.8,6.7 62,-14.3 13.1,-21.1 6.7,-48.8 -14.4,-62 -8.6,-5.4 -17.4,-10.3 -26.4,-14.7 -6.4,-3.2 -13.2,-4.7 -19.9,-4.7 z m -176,-21.2 c -2.7,0 -5.6,0.3 -8.4,0.8 -9.5,1.8 -19,4 -28.4,6.5 -24,6.5 -38.2,31.1 -31.8,55.1 6.5,24 31.1,38.2 55.1,31.8 7.3,-2 14.6,-3.6 21.9,-5 24.4,-4.7 40.4,-28.2 35.8,-52.6 -4.1,-21.6 -23,-36.6 -44.2,-36.6 z m -2025.8,-41.3 c -3.3,0 -6.6,0.4 -9.9,1.1 -24.3,5.4 -39.5,29.5 -34.1,53.7 2,8.7 4,17.3 6.1,25.9 5.8,24.1 30,39 54.3,33.1 24.1,-5.9 38.9,-30.2 33.1,-54.3 -2,-8.1 -3.9,-16.2 -5.7,-24.4 -4.7,-20.9 -23.3,-35.1 -43.8,-35.1 z m -31,-203.8 c -1.2,0 -2.5,0.1 -3.7,0.2 -24.8,2 -43.2,23.7 -41.2,48.5 0.8,8.8 1.6,17.6 2.4,26.4 2.5,24.7 24.5,42.8 49.2,40.3 24.8,-2.5 42.8,-24.5 40.3,-49.2 -0.8,-8.3 -1.6,-16.6 -2.2,-24.9 -2,-23.5 -21.6,-41.3 -44.8,-41.3 z m -3.5,-206.1 c -23.9,0 -43.8,18.8 -44.9,42.9 -0.4,8.8 -0.8,17.6 -1,26.4 -0.8,24.8 18.6,45.6 43.4,46.3 26.1,0.9 45.6,-18.6 46.4,-43.5 0.3,-8.3 0.6,-16.7 1.1,-25 1.1,-24.8 -18.1,-45.9 -42.9,-47.1 -0.7,0 -1.4,0 -2.1,0 z m 22.5,-205 c -21.4,0 -40.4,15.4 -44.2,37.3 -1.6,8.7 -3,17.4 -4.4,26.2 -3.8,24.5 13,47.5 37.5,51.4 24.6,3.7 47.6,-13 51.4,-37.5 1.3,-8.2 2.6,-16.4 4,-24.7 4.3,-24.4 -12,-47.7 -36.5,-52 -2.6,-0.5 -5.2,-0.7 -7.8,-0.7 z m 46.9,-200.8 c -19.4,0 -37.3,12.7 -43.1,32.3 -2.5,8.4 -4.9,16.8 -7.3,25.3 -6.7,23.9 7.2,48.7 31.1,55.5 23.9,6.7 48.8,-7.2 55.5,-31.1 2.3,-8.1 4.6,-16.2 7,-24.2 7,-23.9 -6.6,-48.9 -30.4,-55.9 -4.3,-1.3 -8.5,-1.9 -12.8,-1.9 z m 70.2,-193.9 c -17.5,0 -34,10.2 -41.4,27.2 -3.5,8.1 -6.9,16.3 -10.2,24.5 -9.5,23 1.5,49.2 24.5,58.6 23.1,9.5 49.3,-1.5 58.7,-24.5 3.1,-7.7 6.4,-15.4 9.7,-23.1 9.8,-22.8 -0.8,-49.3 -23.6,-59 -5.8,-2.5 -11.8,-3.7 -17.7,-3.7 z m 92.2,-184.5 c -15.5,0 -30.7,8.1 -39,22.6 -4.4,7.6 -8.7,15.2 -13,22.9 -12.1,21.7 -4.3,49.1 17.4,61.2 21.7,12.1 49.1,4.3 61.1,-17.4 4.1,-7.3 8.3,-14.6 12.5,-21.9 12.4,-21.6 4.9,-49.1 -16.6,-61.4 -7,-4.1 -14.8,-6 -22.4,-6 z m 113.4,-172.2 c -13.6,0 -27.1,6.2 -35.9,17.9 -5.4,7.1 -10.6,14.3 -15.8,21.5 -14.6,20.1 -10.1,48.2 10,62.8 20.1,14.5 48.2,10 62.8,-10.1 4.9,-6.7 9.9,-13.4 14.8,-20.1 15,-19.9 11,-48 -8.9,-63 -8.1,-6.1 -17.6,-9 -27,-9 z m 133.9,-156.8 c -11.6,0 -23.3,4.4 -32,13.3 -6.4,6.5 -12.6,12.9 -18.7,19.5 -17,18.1 -16.1,46.5 2.1,63.5 18.1,17 46.5,16.1 63.5,-2 5.6,-6 11.3,-11.9 17.1,-17.8 17.4,-17.7 17.2,-46.2 -0.4,-63.6 -8.8,-8.6 -20.2,-12.9 -31.6,-12.9 z m 156.6,-133.9 c -9.1,0 -18.3,2.7 -26.2,8.5 -7.3,5.2 -14.5,10.5 -21.6,15.9 -19.8,14.9 -23.8,43.1 -8.9,62.9 15,19.9 43.2,23.8 63,8.9 6.6,-5 13.3,-9.9 20,-14.7 20.2,-14.6 24.7,-42.7 10.2,-62.8 -8.8,-12.2 -22.5,-18.7 -36.5,-18.7 z m 175.5,-108.1 c -7,0 -14.2,1.7 -20.9,5.2 -7.8,4.1 -15.6,8.3 -23.3,12.5 -21.8,11.9 -29.8,39.2 -18,61 11.9,21.8 39.2,29.9 61.1,18 7.3,-4 14.7,-8 22.1,-11.9 22,-11.6 30.4,-38.8 18.9,-60.7 -8.1,-15.3 -23.7,-24.1 -39.9,-24.1 z m 188.1,-84.7 c -5.4,0 -10.8,1 -16.1,3 -8.2,3.2 -16.4,6.4 -24.6,9.6 -23,9.3 -34.3,35.4 -25.1,58.5 9.3,23 35.4,34.3 58.5,25.1 7.7,-3.1 15.5,-6.2 23.4,-9.2 23.2,-8.9 34.8,-34.9 25.9,-58.1 -6.9,-17.9 -23.9,-28.9 -42,-28.9 z m 196,-64.1 c -3.9,0 -7.9,0.5 -11.9,1.6 -8.5,2.3 -16.9,4.7 -25.3,7.1 -23.9,6.9 -37.7,31.8 -30.8,55.7 6.8,23.8 31.7,37.6 55.6,30.7 8.1,-2.3 16.2,-4.6 24.3,-6.8 24,-6.6 38.1,-31.3 31.5,-55.3 -5.5,-19.9 -23.6,-33 -43.4,-33 z m 201.1,-46.3 c -2.8,0 -5.5,0.2 -8.3,0.8 -8.7,1.6 -17.3,3.2 -25.8,4.9 -24.4,4.9 -40.2,28.5 -35.4,52.9 4.9,24.4 28.5,40.2 52.9,35.3 8.3,-1.6 16.5,-3.2 24.9,-4.8 24.4,-4.5 40.4,-28 35.8,-52.5 -4,-21.6 -22.9,-36.6 -44.1,-36.6 z m 1001.9,-29.7 c -22.7,0 -42.2,17.1 -44.6,40.2 -2.7,24.7 15.2,46.8 39.9,49.4 l 25.5,2.8 c 24.9,2.6 46.9,-15.1 49.6,-39.8 2.7,-24.7 -15.1,-46.9 -39.8,-49.6 l -25.8,-2.8 c -1.6,-0.2 -3.2,-0.2 -4.8,-0.2 z m -797.9,-1 c -1.7,0 -3.4,0.1 -5.1,0.3 l -26,3.1 c -24.7,3 -42.2,25.5 -39.1,50.1 3,24.7 25.6,42.1 50.1,39.1 l 25.2,-3 c 24.7,-2.8 42.4,-25 39.6,-49.7 -2.7,-23 -22.1,-39.9 -44.7,-39.9 z m 592.3,-15.5 c -23.7,0 -43.5,18.6 -44.8,42.6 -1.4,24.8 17.6,46 42.4,47.3 l 25.4,1.5 c 24.2,1.8 46.1,-17.3 47.7,-42.1 1.6,-24.8 -17.3,-46.1 -42.1,-47.7 l -26.1,-1.5 c -0.8,0 -1.7,-0.1 -2.5,-0.1 z m -386.7,-1.3 c -0.7,0 -1.5,0 -2.2,0 l -26.2,1.5 c -24.8,1.4 -43.7,22.7 -42.2,47.5 1.4,24.8 23.2,43.4 47.5,42.2 l 25.3,-1.3 c 24.8,-1.2 43.9,-22.4 42.7,-47.2 -1.2,-24 -21.1,-42.7 -44.9,-42.7 z m 180.5,-4.4 c -24.8,0 -44.9,20.1 -44.9,45 0,24.8 20.1,44.9 44.9,44.9 l 25.5,0.1 c 0.1,0 0.2,0 0.3,0 24.7,0 44.8,-19.9 45,-44.6 0.2,-24.8 -19.8,-45.1 -44.7,-45.3 l -26.1,-0.1"
         style="fill:#128C7E;fill-opacity:1;fill-rule:nonzero;stroke:none"
         id="path50" /><path
         d="m 14055.1,12128.3 c -21.8,0 -40.9,15.9 -44.4,38.1 -3.8,24.6 13.1,47.5 37.6,51.3 l 12.5,2 c 24.5,3.9 47.6,-12.9 51.5,-37.4 3.8,-24.5 -12.9,-47.6 -37.5,-51.4 l -12.8,-2 c -2.3,-0.4 -4.6,-0.6 -6.9,-0.6"
         style="fill:#128C7E;fill-opacity:1;fill-rule:nonzero;stroke:none"
         id="path52" /><path
         d="m 2778.83,12637.2 c -16.09,-73 9.25,-132.1 28.25,-204 25.69,-97.1 52.29,-194 79.37,-290.8 48.5,-173.3 83.26,-373.8 167.99,-533.1 10.38,-19.5 46.17,-11.6 43.6,11.8 -19.82,180.7 -99.07,363.8 -149.59,538.4 -27.93,96.5 -55.13,193.3 -82.14,290 -19.88,71.3 -27.5,135.3 -77.1,190.4 -3.06,3.4 -9.39,1.7 -10.38,-2.7 v 0"
         style="fill:#128C7E;fill-opacity:1;fill-rule:nonzero;stroke:none"
         id="path54" /><path
         d="m 3301,12437 c -43.05,-131.8 -69.45,-269.7 -107.86,-403.1 -38.27,-132.9 -92.21,-264.1 -121.71,-399 -5.76,-26.3 32.63,-46 45.82,-19.3 61.95,125.7 96.88,267.6 135.43,401.9 38.78,135.1 81.02,273 99.44,412.6 3.99,30.3 -42.48,33.4 -51.12,6.9 v 0"
         style="fill:#128C7E;fill-opacity:1;fill-rule:nonzero;stroke:none"
         id="path56" /><path
         d="m 3085.86,11588.2 c 150.35,58.9 287.43,165.4 420.53,255.7 135.4,91.8 277.54,182.3 399.94,291.2 21.7,19.3 -6.43,55.3 -30.96,40.1 -144.32,-89.8 -278.36,-198.1 -419.48,-293.2 -127.97,-86.2 -272.49,-160.5 -387.91,-263.1 -13.23,-11.7 0.7,-37.4 17.88,-30.7 v 0"
         style="fill:#128C7E;fill-opacity:1;fill-rule:nonzero;stroke:none"
         id="path58" /><path
         d="m 6027.29,13457.7 c -102.76,-50.3 -174.35,-142.6 -241.76,-232.5 -95.26,-127 -194.12,-248.4 -300.45,-366.4 -219.35,-243.2 -439.29,-486 -658.94,-729 -50.75,-56.1 -101.51,-112.3 -152.26,-168.4 -66.27,-73.3 -81.53,-123.4 -173.77,-68.6 -118.74,70.6 -243.13,131.1 -368.62,188.6 -266.85,122.2 -526.37,240.1 -779.88,389.1 -20.55,12.1 -46.31,-18.6 -26.33,-34.1 368.96,-285.5 845.36,-401.5 1236.36,-654 10.84,-7 28.29,-4.9 37.03,4.8 253.77,280.7 507.54,561.5 761.31,842.2 120.21,133 244.4,263.5 356.49,403.5 108.61,135.7 198.24,271.8 337.57,379 26.57,20.5 4.65,61.2 -26.75,45.8 v 0"
         style="fill:#128C7E;fill-opacity:1;fill-rule:nonzero;stroke:none"
         id="path60" /><path
         d="m 3358.9,12424.1 c 432.43,185.4 868.73,346.2 1313.98,498.1 221.38,75.5 442.91,150.7 664.13,226.7 211.65,72.7 436.45,136.5 633.95,243.4 1.52,0.8 0.4,2.8 -1.11,2.6 -244.37,-40.2 -484.61,-138.6 -718.31,-218.4 -221.39,-75.5 -442.69,-151.4 -664.03,-227 -420.84,-143.9 -858.28,-275.3 -1252.23,-485 -27.24,-14.5 -3.28,-51.9 23.62,-40.4 v 0"
         style="fill:#128C7E;fill-opacity:1;fill-rule:nonzero;stroke:none"
         id="path62" /><path
         d="m 1797.18,12839.6 c -5.97,4.6 -11.95,9.3 -17.93,13.9 -20.02,15.4 -38.35,-16.8 -15.09,-25.9 157.98,-62 343.26,-76.2 509.68,-107.4 171.02,-32 341.87,-65 512.56,-98.8 38.41,-7.6 54.86,51.3 16.25,59 -178.82,35.4 -357.79,70 -537.02,103.2 -160.89,29.9 -333.21,78.9 -497.34,74.4 1.37,-10.1 2.75,-20.3 4.12,-30.4 7.94,2.8 15.88,5.6 23.83,8.4 1.33,0.5 2.34,2.5 0.94,3.6 v 0"
         style="fill:#128C7E;fill-opacity:1;fill-rule:nonzero;stroke:none"
         id="path64" /><path
         d="m 2767.73,12619.8 c 268.7,31.9 539.17,118.9 802.19,182 281.54,67.5 563.08,135.1 844.63,202.7 273.25,65.6 546.5,131.2 819.7,197 271.65,65.5 543.9,122.5 816,182.7 9.75,2.2 7.56,17.6 -2.35,17.4 -252.01,-5 -508.86,-74.5 -752.81,-132.5 -281.67,-67.1 -563.31,-134.3 -844.93,-201.7 -273.33,-65.3 -546.66,-130.6 -819.98,-196 -285.65,-68.3 -591.45,-115.9 -867.08,-217.3 -16.93,-6.3 -16.31,-36.8 4.63,-34.3 v 0"
         style="fill:#128C7E;fill-opacity:1;fill-rule:nonzero;stroke:none"
         id="path66" /><path
         d="m 1767.09,12843.8 c 705.84,69.7 1409.98,190.5 2112.68,286.9 708.76,97.2 1418.28,190.3 2126.37,291.4 -8.14,14 -16.29,28 -24.43,42 -11.38,-12.1 -22.75,-24.1 -34.13,-36.1 -13.24,-14 3.4,-35 20.25,-26.3 14.77,7.7 29.54,15.3 44.31,22.9 20.98,10.9 12.41,50.1 -12.68,46.8 -694.41,-91.4 -1388.07,-190.7 -2082.1,-285.9 -717.37,-98.4 -1442.99,-173.1 -2156.11,-298.6 -24.12,-4.2 -18.85,-45.6 5.84,-43.1 v 0"
         style="fill:#128C7E;fill-opacity:1;fill-rule:nonzero;stroke:none"
         id="path68" /><path
         d="m 2797.74,11487.6 c -13.75,0 -27.33,6.3 -36.15,18.2 -14.8,19.9 -10.63,48.1 9.32,62.9 l 10.52,7.7 c 20.03,14.8 48.18,10.5 62.86,-9.6 14.7,-20 10.4,-48.1 -9.62,-62.8 l -10.18,-7.5 c -8.05,-6 -17.44,-8.9 -26.75,-8.9"
         style="fill:#128C7E;fill-opacity:1;fill-rule:nonzero;stroke:none"
         id="path70" /><path
         d="m 2636.43,11357.3 c -12.5,0 -24.95,5.2 -33.83,15.4 -16.37,18.6 -14.5,47.1 4.18,63.4 l 19.87,17.3 c 18.82,16.2 47.24,14 63.41,-4.8 16.2,-18.8 14.07,-47.2 -4.76,-63.4 l -19.25,-16.7 c -8.53,-7.5 -19.1,-11.2 -29.62,-11.2 z m -149.87,-143.2 c -11.2,0 -22.42,4.1 -31.14,12.5 -17.92,17.2 -18.49,45.7 -1.31,63.6 6.11,6.3 12.25,12.6 18.42,18.9 17.42,17.8 45.88,18 63.6,0.6 17.72,-17.4 17.98,-45.8 0.59,-63.6 -5.95,-6 -11.86,-12.1 -17.72,-18.2 -8.83,-9.2 -20.63,-13.8 -32.44,-13.8 z m -136.97,-155.7 c -9.87,0 -19.82,3.2 -28.12,9.9 -19.37,15.5 -22.47,43.8 -6.92,63.2 5.52,6.9 11.08,13.7 16.68,20.5 15.79,19.2 44.12,22 63.29,6.2 19.19,-15.7 21.97,-44.1 6.2,-63.3 -5.39,-6.5 -10.74,-13.1 -16.04,-19.7 -8.88,-11.1 -21.93,-16.8 -35.09,-16.8 z m -122.12,-167.6 c -8.49,0 -17.08,2.4 -24.7,7.4 -20.74,13.7 -26.47,41.6 -12.8,62.3 4.85,7.4 9.73,14.7 14.66,22 13.91,20.6 41.84,26 62.43,12.1 20.59,-13.9 26.01,-41.8 12.12,-62.4 -4.76,-7 -9.46,-14.1 -14.13,-21.2 -8.63,-13.1 -22.97,-20.2 -37.58,-20.2 z m -104.92,-178.9 c -6.97,0 -14.03,1.7 -20.64,5.1 -22.06,11.4 -30.68,38.6 -19.25,60.6 4.07,7.9 8.2,15.7 12.39,23.5 11.75,21.9 39.03,30.1 60.88,18.4 21.89,-11.7 30.12,-39 18.38,-60.9 -3.99,-7.4 -7.91,-14.9 -11.8,-22.3 -7.99,-15.5 -23.7,-24.4 -39.96,-24.4 z m -84.97,-189 c -5.33,0 -10.75,0.9 -16.03,2.9 -23.2,8.9 -34.82,34.9 -25.96,58.1 3.16,8.3 6.39,16.5 9.67,24.8 9.19,23 35.3,34.3 58.42,25.1 23.06,-9.2 34.31,-35.4 25.12,-58.4 -3.11,-7.9 -6.19,-15.7 -9.2,-23.6 -6.85,-17.9 -23.91,-28.9 -42.02,-28.9 z m -61.93,-197.7 c -3.55,0 -7.15,0.4 -10.76,1.3 -24.12,5.9 -38.87,30.2 -32.95,54.4 2.12,8.6 4.32,17.2 6.58,25.8 6.28,24 30.92,38.5 54.91,32 24.02,-6.3 38.37,-30.8 32.06,-54.9 -2.13,-8.1 -4.21,-16.2 -6.2,-24.4 -5.04,-20.5 -23.42,-34.2 -43.64,-34.2 z m -36.08,-203.9 c -1.61,0 -3.24,0 -4.88,0.2 -24.69,2.7 -42.55,24.9 -39.87,49.5 0.95,8.9 1.99,17.7 3.1,26.5 3.11,24.7 25.45,42.1 50.24,39 24.65,-3.1 42.1,-25.6 38.99,-50.2 -1.06,-8.3 -2.02,-16.6 -2.93,-24.9 -2.49,-23.1 -21.98,-40.1 -44.65,-40.1 z m -7.42,-207 c -23.9,0 -43.8,18.8 -44.87,42.9 -0.42,9 -0.71,17.9 -0.92,26.9 -0.58,24.8 19.08,45.4 43.91,46 23.73,0.3 45.43,-19.1 46,-43.9 0.19,-8.3 0.47,-16.6 0.84,-24.9 1.13,-24.9 -18.08,-45.9 -42.89,-47 -0.69,0 -1.38,0 -2.07,0 z m 25.83,-205.5 c -20.87,0 -39.58,14.6 -43.98,35.8 -1.82,8.8 -3.55,17.6 -5.18,26.3 -4.56,24.4 11.54,47.9 35.96,52.5 24.41,4.6 47.89,-11.6 52.44,-36 1.53,-8.2 3.14,-16.4 4.83,-24.5 5.04,-24.3 -10.58,-48.1 -34.89,-53.2 -3.09,-0.6 -6.15,-0.9 -9.18,-0.9 z m 3402.91,-77 c -24.12,0 -44.07,19.1 -44.92,43.4 -0.86,24.8 18.56,45.7 43.37,46.5 9,0.4 18,0.6 26.97,0.7 23.89,0.9 45.2,-19.6 45.49,-44.5 0.29,-24.8 -19.61,-45.2 -44.44,-45.5 -8.29,-0.1 -16.59,-0.3 -24.88,-0.5 -0.54,-0.1 -1.07,-0.1 -1.59,-0.1 z m 232.08,-18.4 c -2.97,0 -5.97,0.3 -8.99,0.9 -8.06,1.6 -16.14,3.2 -24.24,4.6 -24.47,4.2 -40.84,27.5 -36.59,52 4.25,24.5 27.55,40.8 52.02,36.6 8.91,-1.6 17.82,-3.2 26.7,-5.1 24.34,-4.9 40.06,-28.6 35.12,-53 -4.33,-21.3 -23.08,-36 -44.02,-36 z m -437.81,-6.7 c -20.92,0 -39.67,14.7 -44.01,36 -4.96,24.4 10.76,48.1 35.09,53 8.76,1.8 17.52,3.5 26.25,5.2 24.59,4.5 47.91,-11.6 52.43,-36 4.56,-24.4 -11.55,-47.9 -35.97,-52.5 -8.26,-1.5 -16.51,-3.1 -24.77,-4.8 -3.02,-0.6 -6.04,-0.9 -9.02,-0.9 z m -199.94,-54.9 c -18.72,0 -36.2,11.8 -42.57,30.5 -8,23.5 4.57,49.1 28.08,57.1 8.39,2.8 16.8,5.6 25.21,8.4 23.61,7.6 49,-5.2 56.69,-28.8 7.71,-23.7 -5.19,-49 -28.8,-56.7 -8.05,-2.7 -16.07,-5.3 -24.12,-8.1 -4.8,-1.6 -9.68,-2.4 -14.49,-2.4 z m 834.33,-2.6 c -6.3,0 -12.7,1.4 -18.79,4.2 -7.41,3.4 -14.88,6.7 -22.45,9.9 -22.86,9.7 -33.51,36.1 -23.81,59 9.68,22.8 36.04,33.5 58.97,23.8 8.39,-3.6 16.7,-7.3 24.93,-11.1 22.54,-10.3 32.4,-37.1 22.02,-59.6 -7.58,-16.5 -23.87,-26.2 -40.87,-26.2 z m -3774.21,-39.5 c -18.28,0 -35.47,11.2 -42.18,29.4 -3.09,8.3 -6.1,16.7 -9.05,25.1 -8.22,23.4 4.12,49.1 27.55,57.3 23.39,8.3 49.08,-4.1 57.32,-27.6 2.77,-7.9 5.63,-15.8 8.54,-23.7 8.61,-23.3 -3.3,-49.1 -26.6,-57.7 -5.14,-1.9 -10.4,-2.8 -15.58,-2.8 z m 2747.15,-34.5 c -17.13,0 -33.49,9.9 -41,26.5 -10.22,22.6 -0.16,49.3 22.47,59.5 8.05,3.6 16.1,7.2 24.18,10.7 22.77,10 49.27,-0.4 59.25,-23.1 9.96,-22.7 -0.39,-49.3 -23.14,-59.2 -7.78,-3.4 -15.53,-6.9 -23.27,-10.4 -6.01,-2.7 -12.3,-4 -18.49,-4 z m 1203.89,-33.1 c -9.58,0 -19.24,3 -27.41,9.3 -6.54,5.1 -13.13,10 -19.79,14.9 -20.07,14.6 -24.48,42.7 -9.85,62.8 14.61,20.1 42.76,24.5 62.82,9.8 7.32,-5.3 14.56,-10.7 21.72,-16.3 19.67,-15.1 23.32,-43.4 8.16,-63 -8.86,-11.5 -22.17,-17.5 -35.65,-17.5 z M 4576.74,9383 c -15.99,0 -31.48,8.6 -39.61,23.6 -11.79,21.9 -3.63,49.2 18.22,61 l 23.2,12.4 c 21.93,11.6 49.17,3.2 60.76,-18.8 11.62,-21.9 3.23,-49.1 -18.73,-60.7 l -22.52,-12.1 c -6.79,-3.6 -14.1,-5.4 -21.32,-5.4 z m -2474.99,-61.7 c -15.84,0 -31.21,8.3 -39.4,23.2 -4.32,7.8 -8.57,15.7 -12.75,23.6 -11.59,21.9 -3.18,49.1 18.78,60.7 21.99,11.6 49.17,3.2 60.75,-18.7 3.92,-7.4 7.9,-14.8 11.94,-22.1 12,-21.8 4.11,-49.1 -17.62,-61.1 -6.9,-3.8 -14.35,-5.6 -21.7,-5.6 z m 4014.7,-21.7 c -12.58,0 -25.09,5.2 -33.99,15.5 -5.44,6.3 -10.94,12.5 -16.51,18.6 -16.71,18.4 -15.37,46.8 3,63.5 18.37,16.7 46.81,15.4 63.52,-3 6.05,-6.6 12.02,-13.4 17.92,-20.2 16.27,-18.7 14.26,-47.1 -4.49,-63.4 -8.52,-7.4 -19.01,-11 -29.45,-11 z m -1719.38,-20 c -15.17,0 -29.98,7.7 -38.45,21.6 -12.92,21.2 -6.2,48.9 15.01,61.8 l 22.36,13.5 c 21.28,12.8 48.88,6 61.7,-15.3 12.8,-21.3 5.91,-49 -15.38,-61.7 l -21.88,-13.3 c -7.32,-4.4 -15.39,-6.6 -23.36,-6.6 z m -175.71,-110.2 c -14.9,0 -29.48,7.4 -38.04,20.9 -13.27,21 -7.02,48.8 13.97,62 l 21.97,13.9 c 20.97,13.3 48.76,7.1 62.04,-13.9 13.29,-21 7.04,-48.8 -13.94,-62.1 l -21.99,-13.9 c -7.47,-4.7 -15.79,-6.9 -24.01,-6.9 z m -2005.97,-21.5 c -13.45,0 -26.76,6 -35.62,17.4 -5.48,7.1 -10.89,14.3 -16.22,21.5 -14.78,20 -10.59,48.1 9.37,62.9 19.95,14.8 48.13,10.6 62.9,-9.4 4.98,-6.7 10.01,-13.4 15.12,-20 15.18,-19.6 11.56,-47.8 -8.08,-63 -8.2,-6.4 -17.87,-9.4 -27.47,-9.4 z m 4023.69,-15.2 c -14.98,0 -29.62,7.4 -38.15,21.1 -4.46,7.1 -8.95,14.2 -13.52,21.2 -13.55,20.8 -7.65,48.6 13.16,62.2 20.77,13.5 48.69,7.7 62.22,-13.2 4.85,-7.4 9.64,-14.9 14.37,-22.5 13.17,-21.1 6.79,-48.8 -14.27,-62 -7.41,-4.6 -15.65,-6.8 -23.81,-6.8 z m -2193.86,-73 c -15.18,0 -29.99,7.8 -38.46,21.7 -12.9,21.2 -6.15,48.9 15.06,61.8 l 22.09,13.4 c 21.17,13 48.86,6.3 61.81,-14.9 12.94,-21.2 6.25,-48.9 -14.94,-61.9 l -22.23,-13.5 c -7.3,-4.4 -15.36,-6.6 -23.33,-6.6 z M 2354.8,8994.5 c -10.97,0 -21.96,4 -30.63,12.1 -6.57,6.1 -13.07,12.3 -19.52,18.5 -17.81,17.3 -18.22,45.8 -0.91,63.6 17.29,17.8 45.77,18.2 63.59,0.9 5.97,-5.8 12.02,-11.5 18.12,-17.2 18.18,-16.9 19.19,-45.4 2.28,-63.6 -8.86,-9.5 -20.88,-14.3 -32.93,-14.3 z m 1511.11,-38.9 c -15.88,0 -31.28,8.4 -39.46,23.4 -11.94,21.7 -3.99,49.1 17.78,61 l 22.31,12.4 c 21.64,12.1 49.07,4.4 61.21,-17.3 12.15,-21.6 4.43,-49 -17.23,-61.2 l -23.01,-12.7 c -6.87,-3.8 -14.29,-5.6 -21.6,-5.6 z m 2472.11,-5.1 c -16.84,0 -32.98,9.5 -40.66,25.8 -3.63,7.6 -7.3,15.2 -11.01,22.8 -10.9,22.3 -1.65,49.3 20.66,60.2 22.37,10.9 49.24,1.6 60.14,-20.7 3.88,-7.9 7.71,-15.9 11.48,-23.8 10.63,-22.5 1.06,-49.3 -21.39,-59.9 -6.21,-3 -12.77,-4.4 -19.22,-4.4 z m -3819.73,-83.2 c -8.31,0 -16.7,2.3 -24.22,7.1 -7.57,4.9 -15.09,9.8 -22.54,14.8 -20.6,13.9 -26.06,41.8 -12.2,62.4 13.87,20.7 41.81,26.2 62.41,12.2 6.89,-4.6 13.84,-9.1 20.84,-13.6 20.91,-13.4 27.01,-41.2 13.61,-62.1 -8.58,-13.4 -23.08,-20.8 -37.9,-20.8 z m 1162.78,-5.5 c -16.98,0 -33.24,9.6 -40.83,26.1 -10.43,22.5 -0.61,49.2 21.94,59.6 7.68,3.6 15.33,7.2 22.98,10.8 22.4,10.7 49.26,1.2 59.91,-21.3 10.67,-22.4 1.12,-49.3 -21.31,-59.9 -7.93,-3.8 -15.89,-7.5 -23.84,-11.2 -6.11,-2.8 -12.52,-4.1 -18.85,-4.1 z m -192.08,-77.7 c -18.67,0 -36.12,11.7 -42.54,30.3 -8.06,23.5 4.43,49.1 27.92,57.2 7.96,2.7 15.88,5.5 23.8,8.3 23.4,8.4 49.13,-3.7 57.51,-27.1 8.4,-23.4 -3.75,-49.1 -27.12,-57.5 -8.29,-3 -16.63,-5.9 -24.96,-8.8 -4.84,-1.6 -9.77,-2.4 -14.61,-2.4 z m -786.33,-10.6 c -5.42,0 -10.92,0.9 -16.27,3 -8.4,3.3 -16.74,6.6 -25.05,10.1 -22.91,9.6 -33.72,35.9 -24.15,58.8 9.58,22.9 35.95,33.7 58.83,24.2 7.61,-3.2 15.25,-6.3 22.94,-9.3 23.15,-8.9 34.63,-35 25.63,-58.2 -6.91,-17.7 -23.91,-28.6 -41.93,-28.6 z m 3715.68,-14 c -18.23,0 -35.38,11.2 -42.13,29.2 -2.97,8 -5.98,15.9 -9.02,23.8 -8.93,23.2 2.61,49.2 25.79,58.1 23.17,9 49.19,-2.6 58.12,-25.8 3.17,-8.2 6.28,-16.4 9.35,-24.6 8.69,-23.3 -3.11,-49.2 -26.39,-57.9 -5.18,-1.9 -10.5,-2.8 -15.72,-2.8 z M 3289.03,8730 c -21.1,0 -39.92,14.9 -44.08,36.4 -4.73,24.4 11.19,48 35.56,52.7 8.18,1.6 16.37,3.3 24.51,5 24.25,5.3 48.18,-10.2 53.38,-34.5 5.21,-24.3 -10.26,-48.2 -34.54,-53.4 -8.72,-1.9 -17.45,-3.7 -26.21,-5.4 -2.9,-0.5 -5.78,-0.8 -8.62,-0.8 z m -386.64,-10.3 c -2.3,0 -4.63,0.2 -6.98,0.6 -8.93,1.3 -17.83,2.9 -26.68,4.5 -24.43,4.5 -40.59,27.9 -36.1,52.4 4.49,24.4 28.03,40.5 52.36,36 8.05,-1.4 16.14,-2.8 24.27,-4.1 24.54,-3.8 41.33,-26.8 37.51,-51.3 -3.46,-22.2 -22.6,-38.1 -44.38,-38.1 z m 180.81,-12 c -24.44,0 -44.49,19.6 -44.95,44.2 -0.47,24.8 19.28,45.3 44.11,45.8 8.33,0.1 16.64,0.4 24.96,0.7 24.81,1 45.76,-18.3 46.76,-43.1 1.01,-24.8 -18.29,-45.7 -43.09,-46.7 -8.97,-0.4 -17.95,-0.7 -26.94,-0.8 -0.28,-0.1 -0.58,-0.1 -0.85,-0.1 z m 3401.52,-144.8 c -19.25,0 -37.07,12.5 -42.99,31.9 l -7.59,24.4 c -7.45,23.7 5.71,49 29.4,56.4 23.72,7.5 48.93,-5.7 56.39,-29.4 l 7.79,-25.1 c 7.27,-23.8 -6.08,-48.9 -29.83,-56.2 -4.39,-1.3 -8.82,-2 -13.17,-2 z m 56.47,-199.5 c -19.96,0 -38.19,13.3 -43.48,33.6 l -6.57,24.8 c -6.42,24 7.83,48.6 31.83,55 23.95,6.5 48.63,-7.8 55.04,-31.8 l 6.7,-25.3 c 6.29,-24 -8.09,-48.6 -32.12,-54.9 -3.81,-1 -7.64,-1.4 -11.4,-1.4 z m 50.97,-201.1 c -20.02,0 -38.28,13.5 -43.51,33.8 l -6.46,25.2 c -6.11,24.1 8.46,48.6 32.53,54.7 24.04,6 48.53,-8.5 54.64,-32.6 l 6.39,-24.9 c 6.19,-24.1 -8.28,-48.6 -32.33,-54.8 -3.77,-0.9 -7.54,-1.4 -11.26,-1.4 z m 54.86,-200 c -19.43,0 -37.34,12.7 -43.11,32.3 l -7.33,25.1 c -6.9,23.9 6.85,48.8 30.71,55.7 23.78,6.9 48.78,-6.8 55.68,-30.7 l 7.21,-24.7 c 7.01,-23.8 -6.61,-48.8 -30.43,-55.8 -4.24,-1.3 -8.52,-1.9 -12.73,-1.9"
         style="fill:#128C7E;fill-opacity:1;fill-rule:nonzero;stroke:none"
         id="path72" /><path
         d="m 6706.9,7775.8 c -18.57,0 -35.93,11.6 -42.43,30.1 l -4.29,12.3 c -8.18,23.5 4.2,49.1 27.65,57.3 23.42,8.2 49.08,-4.2 57.26,-27.7 l 4.24,-12.1 c 8.22,-23.4 -4.11,-49.1 -27.55,-57.3 -4.92,-1.8 -9.95,-2.6 -14.88,-2.6"
         style="fill:#128C7E;fill-opacity:1;fill-rule:nonzero;stroke:none"
         id="path74" /><path
         d="m 7356,11955.4 c 158.49,-229.6 356.7,-437.7 533.18,-653.9 189.26,-231.8 406.57,-462.4 557.11,-720.1 81.79,-140.1 266.66,2 378.64,51.3 271.53,119.5 534.43,256.9 789.14,408.9 33.74,20.1 3.04,73 -30.85,52.8 -220.29,-131.5 -446.57,-252.2 -679.55,-359.6 -58.21,-26.9 -116.8,-52.9 -175.69,-78.2 -38.19,-16.4 -130.45,-75.7 -170.38,-70.6 -58.23,7.4 -154.18,168.6 -194.6,218.7 -154.75,191.7 -310.97,382.3 -467.49,572.6 -165.21,200.8 -323.54,419.2 -509.14,601.6 -15.16,14.8 -43.22,-4.9 -30.37,-23.5 v 0"
         style="fill:#128C7E;fill-opacity:1;fill-rule:nonzero;stroke:none"
         id="path76" /><path
         d="m 7357.35,11955 c 154.64,-96.8 344.93,-155.7 513.68,-225.6 186.22,-77.1 372.92,-153 559.76,-228.6 373.77,-151.2 748.97,-298.7 1125.73,-442.3 36.79,-14 52.7,45 16.24,58.9 -368.83,140.6 -736.54,284.1 -1102.82,431.2 -179.27,72 -357.94,145.5 -536.35,219.6 -181.82,75.5 -369.03,178 -559.86,225.7 -23.49,5.9 -36.91,-26 -16.38,-38.9 v 0"
         style="fill:#128C7E;fill-opacity:1;fill-rule:nonzero;stroke:none"
         id="path78" /><path
         d="m 7406.18,11960 c 190.75,-94.6 419.61,-130.3 620.36,-204.2 226.02,-83.1 448.87,-176.3 673.54,-263.2 417.25,-161.3 864.99,-365.4 1312.92,-418.5 36.8,-4.4 41.1,52.1 8.5,62.4 -221.24,69.2 -449.06,116.3 -670,188.6 -221.03,72.3 -439.37,152.9 -656.78,235.4 -217.92,82.7 -436.66,160 -657.27,234.9 -197.55,67.1 -418.06,169.5 -627.65,177.9 -6.92,0.3 -10,-10.2 -3.62,-13.3 v 0"
         style="fill:#128C7E;fill-opacity:1;fill-rule:nonzero;stroke:none"
         id="path80" /><path
         d="m 9617.88,11056.5 c -18.99,-109.8 27.04,-225.1 50.6,-332.1 31,-140.8 58.15,-282.6 90.63,-423 9.12,-39.5 66.61,-22.3 59.86,16.5 -23.31,133.6 -53.83,266.2 -84.05,398.5 -25.64,112.2 -36.18,248 -106.56,341.4 -2.6,3.5 -9.54,4.1 -10.48,-1.3 v 0"
         style="fill:#128C7E;fill-opacity:1;fill-rule:nonzero;stroke:none"
         id="path82" /><path
         d="m 9997.61,11110.1 c -36.6,-135.5 -60.15,-269.5 -108.47,-402.5 -48.3,-133 -98.53,-263.7 -127.94,-402.4 -8.97,-42.3 56,-60.3 64.92,-17.9 55.48,264 244.88,548.1 206.98,822.8 -2.6,18.8 -31.1,16.2 -35.49,0 v 0"
         style="fill:#128C7E;fill-opacity:1;fill-rule:nonzero;stroke:none"
         id="path84" /><path
         d="m 9074.58,10782.7 c 97.35,-87.2 221,-152.1 327.25,-228.9 62.27,-45.1 124.49,-90.2 186.8,-135.2 31.13,-22.5 61.89,-45.7 93.49,-67.5 12.47,-9 24.93,-18 37.4,-27 16.9,-9.8 29.67,0.1 38.33,29.7 -7.32,2.5 -14.53,-1.9 -18.6,-7.6 -0.7,-1 -1.4,-1.9 -2.09,-2.9 -5.24,-7.3 -2.89,-19.2 3.24,-25.1 0.83,-0.9 1.67,-1.7 2.5,-2.5 14.3,-14 38.74,-7.6 44.24,11.7 0.61,2.1 1.22,4.3 1.84,6.4 3.65,12.8 -2.37,28 -14.05,34.6 -226.36,126.8 -429.09,375.4 -686.18,438.6 -13.43,3.3 -25.47,-14.2 -14.17,-24.3 v 0"
         style="fill:#128C7E;fill-opacity:1;fill-rule:nonzero;stroke:none"
         id="path86" /><path
         d="m 7367.05,11984.2 c 282.74,-107.1 603.19,-158.2 897.62,-226.2 313.25,-72.3 626.15,-146 939.26,-218.9 626.3,-145.8 1253.17,-289.7 1880.67,-430.1 48.3,-10.9 66.9,66.2 20,72.7 -13.5,1.9 -27.1,3.8 -40.7,5.7 -31.4,4.4 -57,-38 -23.5,-55.8 11.7,-6.3 23.4,-12.6 35.2,-18.8 9.7,23 19.4,45.9 29,68.9 -634.7,147.2 -1270.3,290.9 -1906.22,432.7 -313.92,70 -628.01,139.1 -941.8,209.7 -288.47,64.8 -592.01,154.9 -886.8,180.3 -12.33,1 -12.78,-16.4 -2.73,-20.2 v 0"
         style="fill:#128C7E;fill-opacity:1;fill-rule:nonzero;stroke:none"
         id="path88" /><path
         d="m 9984.93,11094.8 c 184.77,-23.8 388.27,14.1 575.07,17.7 192.2,3.7 383.9,-2.1 576,-6.2 44.1,-1 43.7,66 0,68.3 -199.9,10.2 -401,7.8 -601,1.4 -178,-5.7 -383.5,6.4 -554.77,-46.5 -20.27,-6.2 -14.28,-32.2 4.7,-34.7 v 0"
         style="fill:#128C7E;fill-opacity:1;fill-rule:nonzero;stroke:none"
         id="path90" /><path
         d="m 10047.4,10120 c -5,0 -10.2,0.8 -15.2,2.6 l -11.9,4.3 c -23.4,8.3 -35.67,34 -27.36,57.4 8.26,23.4 33.86,35.7 57.36,27.4 l 12.4,-4.4 c 23.3,-8.5 35.5,-34.2 27,-57.6 -6.6,-18.3 -23.8,-29.7 -42.3,-29.7"
         style="fill:#128C7E;fill-opacity:1;fill-rule:nonzero;stroke:none"
         id="path92" /><path
         d="m 10239.8,10044.3 c -5.9,0 -12,1.1 -17.8,3.6 l -23.4,10 c -22.9,9.7 -33.7,36 -24,58.9 9.6,22.9 36,33.6 58.9,24 l 24.1,-10.3 c 22.8,-9.8 33.3,-36.2 23.5,-59.1 -7.3,-17 -23.9,-27.1 -41.3,-27.1 z m 187,-88 c -6.9,0 -13.9,1.6 -20.4,4.9 l -22.7,11.6 c -22.2,11.1 -31.2,38.1 -20.1,60.3 11.2,22.2 38.2,31.2 60.4,20.1 l 23.3,-11.9 c 22.2,-11.3 30.9,-38.4 19.6,-60.5 -8,-15.6 -23.7,-24.5 -40.1,-24.5 z m 180.4,-100.9 c -8,0 -16,2.1 -23.3,6.5 l -21.8,13.2 c -21.4,12.7 -28.3,40.3 -15.6,61.6 12.7,21.3 40.3,28.3 61.6,15.6 l 22.5,-13.5 c 21.3,-13 28,-40.6 15,-61.8 -8.4,-13.9 -23.2,-21.6 -38.4,-21.6 z m 172.1,-114.6 c -9.2,0 -18.4,2.8 -26.4,8.6 -6.8,5 -13.7,10 -20.6,14.9 -20.3,14.3 -25,42.4 -10.6,62.7 14.4,20.2 42.4,25 62.7,10.6 7.1,-5.1 14.3,-10.2 21.4,-15.4 20.1,-14.6 24.5,-42.7 9.9,-62.8 -8.8,-12.1 -22.5,-18.6 -36.4,-18.6 z M 10941,9612 c -10.5,0 -21.1,3.7 -29.6,11.1 -6.4,5.6 -12.8,11.1 -19.2,16.6 -18.9,16.1 -21.1,44.5 -5,63.4 16.1,18.9 44.5,21.1 63.4,5 6.7,-5.7 13.3,-11.5 20,-17.3 18.7,-16.3 20.6,-44.7 4.2,-63.4 -8.9,-10.2 -21.3,-15.4 -33.8,-15.4 z m 148.6,-143.5 c -12,0 -23.9,4.8 -32.8,14.2 -5.8,6.2 -11.5,12.3 -17.4,18.3 -17.2,18 -16.6,46.4 1.3,63.6 17.8,17.2 46.3,16.7 63.6,-1.2 6.1,-6.4 12.1,-12.8 18.2,-19.2 16.9,-18.1 16,-46.6 -2.1,-63.6 -8.7,-8.1 -19.8,-12.1 -30.8,-12.1 z m 132.8,-158.3 c -13.7,0 -27.2,6.3 -36,18.1 -5,6.7 -10.1,13.4 -15.2,20 -15.2,19.7 -11.5,47.9 8.2,63.1 19.7,15.1 47.9,11.5 63,-8.2 5.4,-7 10.8,-14 16.1,-21.1 14.8,-19.9 10.7,-48.1 -9.2,-62.9 -8,-6 -17.5,-9 -26.9,-9 z m 114.2,-172.2 c -15.6,0 -30.7,8 -39,22.4 -4.2,7.3 -8.4,14.5 -12.7,21.6 -12.8,21.3 -6,48.9 15.3,61.7 21.3,12.9 48.9,6 61.7,-15.3 4.6,-7.6 9.1,-15.2 13.5,-22.9 12.5,-21.5 5.1,-49 -16.4,-61.5 -7,-4.1 -14.8,-6 -22.4,-6 z m 90.7,-185.6 c -17.8,0 -34.6,10.6 -41.7,28 -3.2,7.7 -6.4,15.4 -9.7,23.1 -9.7,22.9 0.8,49.3 23.7,59.1 22.9,9.8 49.3,-0.9 59,-23.7 3.5,-8.1 6.9,-16.3 10.3,-24.5 9.3,-23 -1.7,-49.2 -24.7,-58.6 -5.5,-2.3 -11.3,-3.4 -16.9,-3.4 z m 65.2,-196 c -20,0 -38.2,13.4 -43.5,33.6 -2.1,8.1 -4.3,16.2 -6.5,24.3 -6.7,23.9 7.3,48.7 31.2,55.4 23.9,6.6 48.8,-7.4 55.4,-31.3 2.4,-8.5 4.7,-17.1 7,-25.6 6.2,-24.1 -8.1,-48.6 -32.2,-54.9 -3.8,-1 -7.6,-1.5 -11.4,-1.5 z m 39,-202.9 c -22.4,0 -41.8,16.7 -44.6,39.5 -1,8.3 -2.1,16.5 -3.3,24.8 -3.5,24.6 13.7,47.3 38.2,50.8 24.7,3.6 47.4,-13.6 50.8,-38.2 1.3,-8.8 2.5,-17.6 3.6,-26.4 3,-24.7 -14.5,-47.1 -39.2,-50.2 -1.8,-0.2 -3.7,-0.3 -5.5,-0.3 z m 11.3,-206.3 c -0.3,0 -0.5,0 -0.8,0 -24.8,0.4 -44.6,20.9 -44.2,45.7 0.1,7.4 0.1,14.7 0.1,22.1 v 3 c 0,24.9 20.2,45 45,45 24.9,0 45,-20.1 45,-45 v -3 c 0,-7.9 -0.1,-15.7 -0.2,-23.6 -0.4,-24.5 -20.5,-44.2 -44.9,-44.2 z m -18.5,-205.8 c -2.5,0 -5,0.3 -7.5,0.7 -24.5,4.1 -41,27.3 -36.9,51.8 1.4,8.2 2.7,16.4 3.9,24.6 3.6,24.6 26.3,41.5 51,38 24.6,-3.7 41.6,-26.5 38,-51.1 -1.3,-8.8 -2.7,-17.6 -4.2,-26.4 -3.7,-22 -22.7,-37.6 -44.3,-37.6 z m -2479.05,-86.9 c -0.68,0 -1.35,0 -2.06,0 -8.18,0.4 -16.38,0.7 -24.56,0.8 -24.84,0.4 -44.62,20.9 -44.19,45.7 0.43,24.6 20.48,44.2 44.94,44.2 0.28,0 0.55,0 0.8,0 9.04,-0.1 18.05,-0.4 27.08,-0.8 24.82,-1.2 44.01,-22.2 42.88,-47 -1.08,-24.1 -20.97,-42.9 -44.89,-42.9 z m -230.8,-21.6 c -19.93,0 -38.12,13.3 -43.46,33.5 -6.33,24 7.97,48.6 31.99,55 9.03,2.3 18.07,4.5 27.18,6.5 24.23,5.2 48.2,-10.2 53.44,-34.5 5.22,-24.3 -10.21,-48.2 -34.47,-53.4 -7.76,-1.7 -15.49,-3.6 -23.17,-5.6 -3.86,-1 -7.72,-1.5 -11.51,-1.5 z m 435.39,-6.5 c -3.17,0 -6.38,0.3 -9.59,1 -8.18,1.8 -16.36,3.5 -24.54,5.2 -24.37,4.8 -40.18,28.5 -35.31,52.9 4.85,24.3 28.53,40.1 52.87,35.3 8.69,-1.8 17.37,-3.6 26.05,-5.5 24.29,-5.2 39.67,-29.2 34.4,-53.5 -4.56,-21 -23.18,-35.4 -43.88,-35.4 z m 199.51,-53.9 c -4.47,0 -9.01,0.6 -13.48,2.1 l -24.31,7.5 c -23.76,7.2 -37.16,32.3 -29.96,56.1 7.23,23.7 32.42,37.1 56.11,29.9 l 25.06,-7.7 c 23.69,-7.5 36.89,-32.7 29.46,-56.4 -6.02,-19.2 -23.76,-31.5 -42.88,-31.5 z m -821.8,-25.5 c -14.32,0 -28.43,6.8 -37.13,19.5 -14.06,20.5 -8.84,48.5 11.66,62.6 7.63,5.2 15.36,10.2 23.22,15.2 21.12,13.1 48.83,6.7 61.98,-14.3 13.14,-21.1 6.75,-48.8 -14.31,-62 -6.8,-4.2 -13.47,-8.6 -20.05,-13.1 -7.75,-5.4 -16.61,-7.9 -25.37,-7.9 z m 2846.45,-5.9 c -4.8,0 -9.7,0.8 -14.5,2.5 -23.5,8 -36.1,33.5 -28,57 2.7,7.9 5.2,15.8 7.8,23.7 7.5,23.6 32.7,36.7 56.4,29.2 23.7,-7.5 36.8,-32.8 29.3,-56.4 -2.7,-8.6 -5.5,-17.1 -8.4,-25.5 -6.4,-18.7 -23.9,-30.5 -42.6,-30.5 z m -1828.55,-33.9 c -4.97,0 -10.01,0.8 -14.95,2.5 l -24.09,8.5 c -23.49,8.1 -35.94,33.7 -27.83,57.1 8.13,23.5 33.82,35.9 57.19,27.8 l 24.64,-8.5 c 23.43,-8.3 35.7,-34 27.45,-57.4 -6.53,-18.5 -23.89,-30 -42.41,-30 z m 193.64,-72.3 c -5.49,0 -11.11,1 -16.56,3.2 l -23.81,9.4 c -23.14,9 -34.55,35.1 -25.52,58.2 9.03,23.1 35.16,34.6 58.24,25.5 l 24.27,-9.5 c 23.08,-9.2 34.37,-35.3 25.21,-58.4 -7,-17.7 -23.91,-28.4 -41.83,-28.4 z m -1356.47,-33.6 c -8.43,0 -16.97,2.4 -24.57,7.4 -20.78,13.6 -26.6,41.4 -13.02,62.2 5.17,7.9 10.54,15.7 16.21,23.3 14.75,20 42.88,24.2 62.88,9.5 19.97,-14.8 24.19,-42.9 9.44,-62.9 -4.62,-6.3 -9.04,-12.6 -13.25,-19.1 -8.64,-13.2 -23.01,-20.4 -37.69,-20.4 z M 10029.4,7754 c -6.2,0 -12.6,1.3 -18.6,4.1 l -23.31,10.5 c -22.65,10.1 -32.82,36.7 -22.68,59.4 10.16,22.7 36.79,32.8 59.39,22.7 l 23.8,-10.8 c 22.7,-10.3 32.6,-36.9 22.4,-59.5 -7.6,-16.6 -23.9,-26.4 -41,-26.4 z m 1360.9,-1.6 c -7.4,0 -14.9,1.9 -21.8,5.7 -21.7,12.1 -29.5,39.5 -17.4,61.2 4,7.2 8,14.5 11.8,21.8 11.6,22 38.7,30.4 60.8,18.8 21.9,-11.6 30.4,-38.8 18.8,-60.7 -4.2,-8 -8.5,-15.8 -12.8,-23.7 -8.2,-14.7 -23.5,-23.1 -39.4,-23.1 z M 10215,7662.7 c -7.1,0 -14.3,1.7 -21.1,5.3 l -22.5,11.9 c -22.1,11.5 -30.6,38.6 -19.1,60.6 11.4,22.1 38.6,30.6 60.6,19.1 l 23.2,-12.2 c 22,-11.6 30.3,-38.9 18.7,-60.8 -8.1,-15.2 -23.7,-23.9 -39.8,-23.9 z M 8417,7608 c -0.85,0 -1.68,0 -2.54,0 -24.79,1.4 -43.78,22.6 -42.4,47.4 0.52,9.8 1.43,19.5 2.71,29.2 3.23,24.6 25.62,41.9 50.48,38.6 24.62,-3.2 41.93,-25.8 38.65,-50.5 -0.98,-7.3 -1.63,-14.7 -2.06,-22.2 -1.31,-24 -21.15,-42.5 -44.84,-42.5 z m 2856.6,-25.7 c -10.2,0 -20.4,3.4 -28.8,10.4 -19.1,15.9 -21.7,44.3 -5.7,63.3 5.2,6.4 10.4,12.8 15.6,19.2 15.4,19.5 43.7,22.7 63.1,7.3 19.5,-15.5 22.7,-43.7 7.3,-63.2 -5.6,-7 -11.3,-14 -17,-20.9 -8.9,-10.6 -21.7,-16.1 -34.5,-16.1 z m -879.6,-23.1 c -8.2,0 -16.5,2.2 -23.9,6.9 -7.2,4.5 -14.4,9 -21.6,13.4 -21.2,13.1 -27.7,40.8 -14.7,61.9 13,21.1 40.7,27.7 61.9,14.7 7.4,-4.6 14.9,-9.3 22.3,-13.9 21,-13.3 27.3,-41.1 14.1,-62.1 -8.6,-13.5 -23.2,-20.9 -38.1,-20.9 z m 170,-117.8 c -9.6,0 -19.1,2.9 -27.3,9.1 -6.7,5.2 -13.5,10.3 -20.2,15.3 -20,14.8 -24.1,43 -9.3,62.9 14.9,20 43.1,24 63,9.3 7,-5.3 14.1,-10.6 21,-15.9 19.8,-15.1 23.6,-43.3 8.5,-63 -8.8,-11.7 -22.2,-17.7 -35.7,-17.7 z m 564.4,-5.8 c -12.8,0 -25.4,5.4 -34.3,15.9 -16.1,18.9 -13.8,47.3 5.1,63.3 6.4,5.4 12.7,10.9 18.9,16.4 18.6,16.5 47,14.7 63.5,-3.9 16.5,-18.5 14.7,-47 -3.9,-63.4 -6.7,-6 -13.4,-11.8 -20.2,-17.6 -8.5,-7.2 -18.8,-10.7 -29.1,-10.7 z m -2667.39,-27.1 c -16.36,0 -32.17,9 -40.1,24.6 -4.29,8.4 -8.35,17 -12.17,25.6 -9.98,22.8 0.35,49.3 23.09,59.3 22.73,10 49.23,-0.3 59.27,-23.1 3.11,-7.1 6.42,-14.1 9.96,-21 11.27,-22.2 2.46,-49.2 -19.67,-60.5 -6.55,-3.3 -13.5,-4.9 -20.38,-4.9 z m 2499.59,-93 c -15.3,0 -30.2,7.8 -38.6,21.9 -12.8,21.3 -5.9,48.9 15.4,61.7 7.1,4.2 14.2,8.6 21.2,13 21.1,13.2 48.8,6.8 62,-14.2 13.2,-21 6.8,-48.8 -14.2,-62 -7.5,-4.7 -15.1,-9.4 -22.7,-13.9 -7.3,-4.4 -15.2,-6.5 -23.1,-6.5 z m -238.9,-7.7 c -11.1,0 -22.2,4.1 -30.8,12.2 -6.2,5.8 -12.3,11.5 -18.5,17.2 -18.3,16.8 -19.6,45.3 -2.8,63.6 16.9,18.3 45.3,19.5 63.6,2.7 6.5,-5.9 12.9,-11.9 19.3,-18 18.1,-17 19,-45.5 1.9,-63.6 -8.8,-9.4 -20.8,-14.1 -32.7,-14.1 z m -2132.09,-59.5 c -10.36,0 -20.77,3.5 -29.26,10.8 -7.02,6.1 -13.92,12.2 -20.67,18.5 -18.17,17 -19.12,45.5 -2.16,63.6 16.91,18.2 45.42,19.1 63.54,2.2 5.84,-5.5 11.79,-10.8 17.86,-16 18.85,-16.2 21,-44.6 4.84,-63.4 -8.9,-10.4 -21.47,-15.7 -34.15,-15.7 z m 2273.79,-90.6 c -12.9,0 -25.7,5.5 -34.5,16.1 -5.4,6.4 -10.8,12.8 -16.2,19.1 -9.1,10.5 -12.4,23.9 -10.4,36.6 -2.7,-1.2 -5.5,-2.4 -8.3,-3.5 -22.7,-9.8 -49.2,0.9 -59,23.7 -9.7,22.9 1,49.3 23.8,59 7.7,3.3 15.4,6.6 23,10 22.8,10 49.3,-0.2 59.4,-22.9 4.1,-9.4 4.8,-19.4 2.6,-28.7 13.7,1.1 27.4,-4.3 37,-15.4 5.8,-6.8 11.5,-13.5 17.2,-20.3 15.9,-19.1 13.3,-47.5 -5.8,-63.3 -8.4,-7 -18.6,-10.4 -28.8,-10.4 z m -281.8,-4.2 c -19.5,0 -37.4,12.7 -43.1,32.3 -7,23.9 6.7,48.8 30.5,55.8 8.1,2.4 16.2,4.8 24.2,7.2 23.7,7.3 48.9,-6 56.2,-29.8 7.2,-23.7 -6.1,-48.9 -29.8,-56.2 -8.5,-2.5 -16.9,-5.1 -25.4,-7.5 -4.2,-1.3 -8.4,-1.8 -12.6,-1.8 z m -1815.83,-11.7 c -5.65,0 -11.37,1.1 -16.92,3.3 -8.43,3.5 -16.83,7.1 -25.19,10.8 -22.66,10.1 -32.82,36.7 -22.68,59.4 10.16,22.7 36.76,32.8 59.42,22.7 7.4,-3.3 14.85,-6.5 22.33,-9.6 23.01,-9.3 34.08,-35.6 24.72,-58.6 -7.11,-17.4 -23.92,-28 -41.68,-28 z m 1614.83,-36.6 c -21.1,0 -39.9,14.9 -44.1,36.4 -4.7,24.4 11.2,48 35.6,52.7 l 24.9,5 c 24.4,4.9 48.1,-10.8 53.1,-35.1 5,-24.4 -10.8,-48.1 -35.1,-53.1 l -25.7,-5.1 c -3,-0.5 -5.8,-0.8 -8.7,-0.8 z m -1416,-18.8 c -2.58,0 -5.22,0.3 -7.85,0.7 -8.78,1.6 -17.59,3.2 -26.32,5 -24.37,4.8 -40.2,28.4 -35.38,52.8 4.81,24.4 28.3,40.1 52.84,35.4 8.13,-1.6 16.29,-3.2 24.47,-4.6 24.44,-4.3 40.77,-27.6 36.48,-52.1 -3.84,-21.8 -22.81,-37.2 -44.24,-37.2 z m 1211.9,-12.7 c -22.4,0 -41.9,16.8 -44.6,39.7 -2.9,24.6 14.7,47 39.4,49.9 l 25.2,3.1 c 24.9,3.2 47.1,-14.3 50.3,-38.9 3.1,-24.7 -14.4,-47.1 -39,-50.3 l -25.9,-3.2 c -1.8,-0.2 -3.6,-0.3 -5.4,-0.3 z m -1006.51,-10.2 c -0.98,0 -1.96,0.1 -2.94,0.1 l -26.19,1.8 c -24.77,1.8 -43.36,23.4 -41.56,48.1 1.83,24.8 23.21,43.5 48.13,41.6 l 25.39,-1.7 c 24.77,-1.6 43.59,-23 41.99,-47.8 -1.54,-23.8 -21.31,-42.1 -44.82,-42.1 z m 800.67,-7.9 c -23.62,0 -43.41,18.4 -44.84,42.3 -1.48,24.8 17.41,46.1 42.2,47.6 l 25.45,1.6 c 24.73,1.4 46.23,-17.1 47.83,-41.9 1.7,-24.7 -17,-46.2 -41.81,-47.8 l -26.1,-1.7 c -0.9,-0.1 -1.83,-0.1 -2.73,-0.1 z m -594.21,-2 c -0.57,0 -1.15,0 -1.73,0 l -25.94,1 c -24.82,1.1 -44.12,22 -43.11,46.8 1.03,24.8 22.13,44.2 46.77,43.1 l 25.7,-1 c 24.81,-0.9 44.16,-21.8 43.23,-46.6 -0.93,-24.3 -20.85,-43.3 -44.92,-43.3 z m 387.54,-5.6 c -24.49,0 -44.54,19.7 -44.94,44.3 -0.4,24.8 19.42,45.2 44.24,45.6 l 25.69,0.5 c 0.3,0 0.61,0 0.93,0 24.42,0 44.44,-19.5 44.94,-44 0.51,-24.9 -19.22,-45.4 -44.06,-45.9 l -26.05,-0.5 c -0.25,0 -0.5,0 -0.75,0 z m -180.87,0 c -0.23,0 -0.45,0 -0.68,0 l -25.97,0.4 c -24.84,0.4 -44.61,20.9 -44.19,45.8 0.43,24.5 20.48,44.1 44.94,44.1 0.28,0 0.56,0 0.81,0 l 25.72,-0.4 c 24.84,-0.3 44.66,-20.8 44.31,-45.6 -0.35,-24.6 -20.42,-44.3 -44.94,-44.3 z m 1402.28,-57 c -14.9,0 -29.4,7.3 -38,20.8 -4.5,7.1 -9.1,14.1 -13.7,21.1 -13.6,20.7 -7.9,48.6 12.8,62.3 20.8,13.7 48.6,7.9 62.3,-12.8 4.9,-7.4 9.7,-14.8 14.5,-22.3 13.3,-20.9 7.1,-48.7 -13.8,-62.1 -7.5,-4.7 -15.9,-7 -24.1,-7 z m 94.4,-183.6 c -17.7,0 -34.5,10.6 -41.7,28 -3.1,7.7 -6.3,15.4 -9.6,23 -9.9,22.8 0.6,49.2 23.4,59.1 22.8,9.8 49.3,-0.6 59.1,-23.4 3.6,-8.2 7,-16.4 10.4,-24.7 9.4,-23 -1.6,-49.2 -24.6,-58.6 -5.6,-2.3 -11.4,-3.4 -17,-3.4 z m 62.1,-196.9 c -20.5,0 -39,14.1 -43.8,34.9 -1.8,8.1 -3.8,16.2 -5.8,24.3 -6,24.1 8.6,48.5 32.8,54.5 24,6 48.5,-8.6 54.5,-32.7 2.1,-8.6 4.2,-17.3 6.2,-25.9 5.6,-24.2 -9.5,-48.4 -33.7,-53.9 -3.5,-0.8 -6.8,-1.2 -10.2,-1.2 z m 30.3,-204.3 c -23.4,0 -43.1,18.1 -44.8,41.8 -0.6,8.3 -1.2,16.6 -2,24.9 -2.2,24.7 16,46.6 40.8,48.8 24.6,2.3 46.6,-16 48.8,-40.7 0.8,-8.9 1.5,-17.8 2.2,-26.7 1.7,-24.7 -17,-46.2 -41.8,-48 -1,0 -2.1,-0.1 -3.2,-0.1 z m -1.8,-206.6 c -1.4,0 -2.7,0.1 -4.1,0.2 -24.7,2.2 -43,24.1 -40.7,48.8 0.7,8.3 1.4,16.6 1.9,24.9 1.8,24.8 23.1,43.4 48,41.7 24.8,-1.7 43.5,-23.2 41.8,-48 -0.6,-8.9 -1.4,-17.8 -2.2,-26.7 -2.1,-23.3 -21.7,-40.9 -44.7,-40.9 z m -689,-185.5 c -1.1,0 -2.2,0 -3.3,0.1 -8,0.6 -16.1,1 -24.3,1.3 -24.8,1 -44.1,21.8 -43.2,46.7 1,24.8 21.8,44.3 46.7,43.2 9.1,-0.4 18.2,-0.8 27.3,-1.5 24.7,-1.8 43.4,-23.3 41.6,-48.1 -1.7,-23.6 -21.4,-41.7 -44.8,-41.7 z m 653,-18 c -3.8,0 -7.7,0.5 -11.6,1.6 -24,6.4 -38.3,31.1 -31.8,55 2.1,8.1 4.2,16.1 6.2,24.2 5.9,24.1 30.1,38.8 54.4,33 24.1,-5.9 38.8,-30.3 32.9,-54.4 -2.1,-8.7 -4.4,-17.4 -6.7,-26 -5.3,-20.1 -23.5,-33.4 -43.4,-33.4 z m -883.6,-2.6 c -19.6,0 -37.6,13 -43.3,32.7 -6.7,23.9 7.1,48.8 31,55.6 9,2.5 18,4.8 27.2,6.9 23.9,5.6 48.3,-9.4 53.9,-33.6 5.6,-24.2 -9.4,-48.3 -33.6,-53.9 -7.8,-1.8 -15.4,-3.8 -22.9,-5.9 -4.1,-1.2 -8.3,-1.8 -12.3,-1.8 z m 433.4,-17.7 c -4.1,0 -8.2,0.6 -12.3,1.8 -8.1,2.3 -16.1,4.5 -24.2,6.6 -24,6.4 -38.3,31.1 -31.9,55.1 6.4,24 31,38.3 55.1,31.8 8.5,-2.3 17.1,-4.6 25.6,-7 23.9,-6.8 37.7,-31.7 30.9,-55.6 -5.6,-19.8 -23.6,-32.7 -43.2,-32.7 z m 194.3,-69.9 c -6,0 -12.1,1.3 -18,3.8 -7.6,3.4 -15.3,6.6 -23,9.8 -22.9,9.6 -33.8,35.9 -24.2,58.9 9.5,22.9 35.8,33.7 58.8,24.2 8.2,-3.4 16.4,-6.9 24.5,-10.5 22.7,-10 33.1,-36.5 23.1,-59.2 -7.4,-16.9 -23.9,-27 -41.2,-27 z m -803.3,-15.9 c -10.6,0 -21.3,3.7 -29.8,11.3 -18.6,16.4 -20.3,44.8 -3.9,63.4 6.6,7.5 13.5,14.6 20.7,21.4 18,17.1 46.5,16.3 63.5,-1.6 17.1,-18.1 16.4,-46.5 -1.6,-63.6 -5.3,-5 -10.4,-10.3 -15.2,-15.8 -8.9,-10 -21.3,-15.1 -33.7,-15.1 z m 986.4,-87.1 c -6.8,0 -13.7,1.5 -20.1,4.8 -9.2,4.6 -16.1,11.8 -20.2,20.3 -1.4,0.8 -2.7,1.6 -4,2.3 -21.5,12.5 -28.8,40 -16.4,61.5 10.9,18.7 33.2,26.6 52.9,20.2 11.7,5.4 25.5,5.8 38,0 22.5,-10.5 32.3,-37.2 21.8,-59.7 -3.8,-8.3 -7.7,-16.4 -11.8,-24.5 -7.9,-15.8 -23.7,-24.9 -40.2,-24.9 z m -1055.5,-102.5 c -24.28,0 -44.28,19.4 -44.9,43.8 l -0.15,9.8 c 0,6.6 0.2,13.3 0.6,19.9 1.53,24.8 22.51,43.9 47.65,42.2 24.8,-1.5 43.6,-22.9 42.1,-47.6 -0.3,-4.9 -0.4,-9.7 -0.4,-14.5 l 0.1,-7.4 c 0.6,-24.9 -19,-45.5 -43.8,-46.2 -0.4,0 -0.8,0 -1.2,0 z m 1226.1,-6.5 c -9.7,0 -19.5,3.1 -27.8,9.6 -6.6,5.2 -13.2,10.3 -19.9,15.4 -19.7,15 -23.6,43.3 -8.5,63 15,19.8 43.3,23.6 63,8.5 7,-5.3 14,-10.7 21,-16.2 19.5,-15.3 22.9,-43.6 7.6,-63.1 -8.9,-11.3 -22.1,-17.2 -35.4,-17.2 z m -282.7,-64.1 c -10.1,0 -20.3,3.4 -28.7,10.4 -19.1,15.8 -21.7,44.2 -5.9,63.3 5.2,6.2 10.3,12.6 15.4,19 15.2,19.6 43.6,23.1 63.1,7.8 19.6,-15.2 23.1,-43.5 7.8,-63.1 -5.6,-7.1 -11.3,-14.2 -17.1,-21.2 -8.8,-10.7 -21.7,-16.2 -34.6,-16.2 z m 437,-73.3 c -11.6,0 -23.1,4.5 -31.9,13.4 -5.9,5.9 -11.8,11.7 -17.8,17.6 -17.8,17.3 -18.1,45.8 -0.8,63.6 17.3,17.7 45.8,18.1 63.6,0.8 6.4,-6.2 12.6,-12.5 18.9,-18.8 17.5,-17.6 17.3,-46.1 -0.3,-63.6 -8.8,-8.7 -20.2,-13 -31.7,-13 z M 10076,5509.1 c -13.8,0 -27.3,6.3 -36.2,18.2 -5.7,7.8 -11.2,15.7 -16.4,23.9 -13.4,20.9 -7.2,48.7 13.7,62.1 21,13.4 48.8,7.2 62.1,-13.8 4,-6.3 8.3,-12.5 12.9,-18.6 14.8,-19.9 10.6,-48.1 -9.3,-62.9 -8.1,-6 -17.5,-8.9 -26.8,-8.9 z m 723,-19.9 c -14.1,0 -27.8,6.5 -36.6,18.7 -14.5,20.2 -9.9,48.3 10.3,62.8 6.6,4.7 13.2,9.6 19.6,14.5 19.8,15.1 48,11.4 63.1,-8.4 15.1,-19.7 11.3,-47.9 -8.4,-63 -7.2,-5.5 -14.5,-10.9 -21.9,-16.2 -7.9,-5.7 -17.1,-8.4 -26.1,-8.4 z m 723.9,-88 c -13.4,0 -26.7,6 -35.6,17.4 -5.1,6.6 -10.4,13.3 -15.6,19.9 -15.5,19.4 -12.3,47.7 7.1,63.1 19.4,15.5 47.7,12.3 63.2,-7.1 5.5,-6.9 10.9,-13.8 16.3,-20.8 15.3,-19.6 11.7,-47.8 -7.9,-63.1 -8.2,-6.3 -17.9,-9.4 -27.5,-9.4 z m -906.1,-8.5 c -18.4,0 -35.7,11.4 -42.3,29.7 -8.4,23.4 3.7,49.2 27,57.6 7.6,2.7 15.2,5.6 22.6,8.6 23.1,9.4 49.3,-1.8 58.5,-24.8 9.3,-23.1 -1.8,-49.3 -24.8,-58.6 -8.5,-3.4 -17.1,-6.7 -25.7,-9.8 -5.1,-1.8 -10.2,-2.7 -15.3,-2.7 z m -379.3,-8.1 c -5.4,0 -11,1 -16.4,3.2 -8.5,3.3 -16.9,6.9 -25.2,10.8 -22.3,10.3 -32.7,36.9 -22.6,59.3 10,22.4 35.6,32.9 58.2,23.2 9,-4.1 15.7,-7 22.5,-9.6 23.1,-9.1 34.5,-35.2 25.4,-58.4 -7,-17.7 -23.9,-28.5 -41.9,-28.5 z m 177.2,-30.6 c -24.6,0 -44.7,19.7 -45,44.3 -0.4,24.9 19.5,45.3 44.3,45.6 7.9,0.2 15.8,0.5 23.7,1 24.5,1.7 46.1,-17.3 47.7,-42.1 1.5,-24.8 -17.3,-46.1 -42.1,-47.7 -9.3,-0.6 -18.6,-0.9 -28,-1.1 -0.2,0 -0.4,0 -0.6,0 z m 1224.1,-123.9 c -15.5,0 -30.5,8 -38.9,22.2 -4.2,7.2 -8.5,14.4 -12.9,21.5 -12.9,21.2 -6.2,48.9 15,61.8 21.1,13 48.8,6.3 61.8,-14.9 4.6,-7.5 9.2,-15.2 13.7,-22.8 12.6,-21.4 5.4,-49 -16,-61.6 -7.2,-4.2 -15,-6.2 -22.7,-6.2 z m 92.9,-184.4 c -17.6,0 -34.2,10.3 -41.5,27.5 -3.2,7.7 -6.5,15.3 -9.9,22.9 -10.1,22.7 0.2,49.3 22.9,59.3 22.6,10.2 49.2,-0.1 59.3,-22.8 3.6,-8.2 7.1,-16.3 10.6,-24.5 9.6,-22.9 -1.1,-49.3 -24,-58.9 -5.7,-2.4 -11.6,-3.5 -17.4,-3.5"
         style="fill:#128C7E;fill-opacity:1;fill-rule:nonzero;stroke:none"
         id="path94" /><path
         d="m 11796.8,4858.8 c -19.6,0 -37.7,13.1 -43.3,33 l -3.4,12.1 c -6.8,23.8 7,48.7 30.9,55.6 23.8,6.8 48.8,-7 55.6,-30.9 l 3.6,-12.7 c 6.6,-23.9 -7.3,-48.7 -31.3,-55.4 -4,-1.1 -8.1,-1.7 -12.1,-1.7"
         style="fill:#128C7E;fill-opacity:1;fill-rule:nonzero;stroke:none"
         id="path96" /><path
         d="m 3049.51,7008.5 c 1.12,-248.8 36,-500.3 44.78,-749.6 9.15,-259.9 18.39,-519.5 35.5,-779 32.81,-497.7 86.67,-993.7 158.46,-1487.2 2.43,-16.7 25.81,-29.3 41.14,-23.4 393.52,153 787.05,306.1 1180.57,459.1 39.34,15.3 22.25,79.4 -17.63,63.9 -393.57,-152.8 -787.15,-305.6 -1180.72,-458.5 13.71,-7.8 27.42,-15.5 41.14,-23.3 -74.35,512.7 -130.42,1028 -166.93,1544.9 -17.73,250.9 -30.12,502.2 -40.94,753.6 -9.96,231.5 -3.93,478.6 -57.71,704.6 -5.04,21.2 -37.76,16.4 -37.66,-5.1 v 0"
         style="fill:#128C7E;fill-opacity:1;fill-rule:nonzero;stroke:none"
         id="path98" /><path
         d="m 3053.08,6998.1 c 501.35,-825.5 958.13,-1682 1423.05,-2528.9 23.64,-43.1 89.47,-4.6 65.88,38.5 -243.19,444.7 -488.4,888.3 -735.77,1330.7 -123.67,221.2 -248.76,441.6 -374.13,661.8 -98.91,173.8 -189.71,401.8 -354.43,522.5 -14.93,10.9 -33.43,-10.1 -24.6,-24.6 v 0"
         style="fill:#128C7E;fill-opacity:1;fill-rule:nonzero;stroke:none"
         id="path100" /><path
         d="m 3060.17,7007.7 c 445.7,-404.2 935.17,-767.5 1403.35,-1145.4 476.17,-384.3 951.48,-769.7 1428.61,-1152.9 5.67,21.5 11.35,43 17.02,64.5 -344.47,-49.5 -687.02,-110 -1027.62,-181.4 14.6,-5.9 29.2,-11.8 43.8,-17.8 -307.8,408.5 -612.51,819.3 -913.79,1232.6 -148.19,203.3 -295.64,407.1 -442.29,611.5 -142.73,198.9 -275.28,410.8 -434.06,597.3 -23.93,28.1 -67.97,-7.9 -50.19,-38.7 124.97,-216.2 285.89,-415.6 431.45,-618.5 146.63,-204.4 294.08,-408.2 442.39,-611.4 296.63,-406.3 596.57,-810.3 899.5,-1211.9 11.12,-14.8 25.3,-21.7 43.81,-17.9 340.56,71.6 683.08,132.2 1027.51,181.8 27.62,4 38.38,47.4 17.03,64.5 -484.15,388.5 -969.76,775.1 -1454.33,1163 -465.26,372.5 -920.88,768.4 -1406.78,1113.7 -19.41,13.8 -42.95,-17.1 -25.41,-33 v 0"
         style="fill:#128C7E;fill-opacity:1;fill-rule:nonzero;stroke:none"
         id="path102" /><path
         d="m 4479.39,4490.9 c 8.56,-80 22.94,-159.3 36.49,-238.6 9.9,-57.9 8.08,-165.5 43.39,-212.5 11.32,-15.1 39.34,-21.7 49.14,0 0.54,1.1 1.07,2.3 1.61,3.5 7.55,16.7 -0.94,40.8 -22.65,39.5 28.09,1.7 -50.94,374.2 -60.91,414.5 -6.32,25.5 -50.01,21 -47.07,-6.4 v 0"
         style="fill:#128C7E;fill-opacity:1;fill-rule:nonzero;stroke:none"
         id="path104" /><path
         d="m 4311.13,4389.7 c 6.67,-67.7 59.56,-123.9 98.32,-177.2 45.07,-62 92.23,-122.8 143.64,-179.7 23.24,-25.7 59.49,11.8 37.68,37.7 -1.81,2.1 -3.62,4.3 -5.43,6.4 -4.32,5.2 -14.55,6.6 -20.09,2.6 -2.25,-1.6 -4.51,-3.2 -6.77,-4.8 10.76,-1.4 21.53,-2.8 32.29,-4.2 -51.49,61.9 -103.38,123.3 -151.04,188.3 -35.12,47.9 -62.82,107.7 -115.08,138.6 -5.43,3.2 -14.21,-0.8 -13.52,-7.7 v 0"
         style="fill:#128C7E;fill-opacity:1;fill-rule:nonzero;stroke:none"
         id="path106" /><path
         d="m 4886.39,4568 c -64.51,-66.2 -106.04,-157 -152.99,-236.2 -53.92,-90.9 -107.39,-182.1 -161.08,-273.1 -16.75,-28.4 27.43,-54.2 44.15,-25.8 53.69,91 107.61,181.9 161.08,273.1 46.56,79.4 105.88,159.7 132.54,248.2 4.1,13.6 -13.91,23.8 -23.7,13.8 v 0"
         style="fill:#128C7E;fill-opacity:1;fill-rule:nonzero;stroke:none"
         id="path108" /><path
         d="m 3070.29,4562.1 c 0.41,0 0.41,0.6 0,0.6 -0.4,0 -0.4,-0.6 0,-0.6 v 0"
         style="fill:#128C7E;fill-opacity:1;fill-rule:nonzero;stroke:none"
         id="path110" /><path
         d="m 7686.23,4123.1 c -7.57,0 -15.25,1.9 -22.29,5.9 -5.78,3.3 -11.74,6.3 -17.9,8.8 -22.95,9.5 -33.85,35.8 -24.36,58.8 9.48,22.9 35.79,33.8 58.74,24.3 9.58,-3.9 19.06,-8.6 28.17,-13.8 21.55,-12.3 29.04,-39.8 16.71,-61.4 -8.3,-14.5 -23.46,-22.6 -39.07,-22.6 z m -215.6,-18.5 c -12.59,0 -25.08,5.2 -33.98,15.4 -16.28,18.8 -14.29,47.2 4.47,63.5 8.1,7 16.64,13.5 25.36,19.2 20.79,13.5 48.65,7.7 62.23,-13.1 13.57,-20.8 7.71,-48.7 -13.08,-62.2 -5.29,-3.5 -10.52,-7.5 -15.54,-11.8 -8.51,-7.4 -19.01,-11 -29.46,-11 z M 7813.49,3966 c -17.43,0 -34.02,10.2 -41.33,27.2 -3.09,7.1 -6.34,14.2 -9.78,21.1 -11.01,22.3 -1.9,49.3 20.35,60.3 22.29,11 49.25,1.9 60.24,-20.4 4.17,-8.3 8.08,-16.8 11.79,-25.5 9.82,-22.8 -0.72,-49.2 -23.53,-59.1 -5.8,-2.5 -11.82,-3.6 -17.74,-3.6 z m -432.23,-42.2 c -2.47,0 -4.98,0.2 -7.49,0.6 -24.49,4.2 -41.01,27.3 -36.91,51.8 1.58,9.4 3.42,18.7 5.51,27.8 5.53,24.2 29.68,39.3 53.85,33.8 24.21,-5.5 39.35,-29.6 33.82,-53.8 -1.71,-7.5 -3.2,-15 -4.48,-22.6 -3.7,-22 -22.73,-37.6 -44.3,-37.6 z m -2737.18,-80.6 c -16.1,0 -31.67,8.7 -39.75,23.9 l -12.09,22.9 c -11.55,22 -3.08,49.2 18.9,60.7 22.02,11.6 49.21,3.1 60.72,-18.9 l 11.89,-22.5 c 11.65,-21.9 3.32,-49.1 -18.61,-60.8 -6.72,-3.6 -13.95,-5.3 -21.06,-5.3 z m 3214.07,-76.9 c -23.33,0 -43.06,18 -44.79,41.7 -0.6,8.1 -1.29,16.3 -2.11,24.4 -2.47,24.7 15.56,46.8 40.28,49.2 24.76,2.4 46.75,-15.5 49.2,-40.2 0.91,-9 1.66,-17.9 2.31,-26.8 1.84,-24.8 -16.78,-46.3 -41.55,-48.2 -1.1,0 -2.23,-0.1 -3.34,-0.1 z m -468.58,-46.5 c -20.05,0 -38.33,13.5 -43.53,33.9 -2.32,9 -4.39,18.2 -6.22,27.5 -4.81,24.3 11.04,48 35.4,52.8 24.34,4.8 48.01,-11 52.83,-35.4 1.5,-7.7 3.22,-15.2 5.11,-22.6 6.16,-24.1 -8.35,-48.6 -32.42,-54.7 -3.73,-1 -7.49,-1.5 -11.17,-1.5 z M 4745.8,3664.6 c -15.13,0 -29.92,7.7 -38.39,21.5 -4.55,7.5 -9.06,14.9 -13.52,22.4 -12.74,21.4 -5.77,49 15.54,61.7 21.31,12.7 48.92,5.8 61.67,-15.6 4.3,-7.2 8.64,-14.4 13.02,-21.5 12.96,-21.2 6.3,-48.9 -14.89,-61.9 -7.32,-4.4 -15.42,-6.6 -23.43,-6.6 z m 3106.08,-103.3 c -1.98,0 -3.97,0.1 -5.97,0.4 -24.64,3.2 -41.93,25.9 -38.66,50.5 1.08,8.1 2.06,16.2 2.92,24.3 2.63,24.7 24.95,42.6 49.46,39.9 24.69,-2.6 42.61,-24.7 39.98,-49.4 -0.96,-8.9 -2.04,-17.8 -3.22,-26.7 -3.01,-22.6 -22.3,-39 -44.51,-39 z m -378.17,-28.4 c -15.2,0 -30.03,7.7 -38.49,21.7 -4.65,7.6 -9.22,15.4 -13.66,23.3 -12.27,21.5 -4.71,49 16.89,61.3 21.58,12.2 49.04,4.7 61.3,-16.9 4.04,-7.1 8.15,-14.2 12.38,-21.1 12.87,-21.3 6.09,-48.9 -15.14,-61.8 -7.29,-4.4 -15.33,-6.5 -23.28,-6.5 z m -2615.93,-40.6 c -14.2,0 -28.19,6.7 -36.92,19.2 l -14.84,21.5 c -14.01,20.6 -8.72,48.5 11.78,62.5 20.5,14 48.48,8.8 62.49,-11.7 l 14.34,-20.9 c 14.2,-20.3 9.2,-48.4 -11.18,-62.6 -7.83,-5.4 -16.8,-8 -25.67,-8 z m 2740.36,-122.4 c -11.96,0 -23.88,4.8 -32.72,14.1 -6.13,6.5 -12.16,13.1 -18.12,19.7 -16.59,18.5 -15.06,46.9 3.43,63.5 18.49,16.6 46.92,15.1 63.49,-3.4 5.46,-6.1 10.99,-12.1 16.61,-18 17.04,-18.1 16.21,-46.6 -1.84,-63.6 -8.69,-8.2 -19.79,-12.3 -30.85,-12.3 z m 207.22,-8.6 c -4.72,0 -9.51,0.8 -14.23,2.4 -23.56,7.8 -36.3,33.3 -28.44,56.8 2.59,7.9 5.11,15.7 7.54,23.5 7.32,23.8 32.6,37.1 56.2,29.8 23.74,-7.3 37.07,-32.5 29.74,-56.2 -2.63,-8.6 -5.34,-17.1 -8.16,-25.5 -6.29,-18.8 -23.83,-30.8 -42.65,-30.8 z m -2824.79,-33.9 c -13.18,0 -26.26,5.8 -35.14,16.9 l -16.21,20.5 c -15.34,19.5 -11.96,47.8 7.57,63.1 19.53,15.4 47.79,11.9 63.14,-7.6 l 15.74,-19.8 c 15.5,-19.4 12.36,-47.7 -7.04,-63.2 -8.28,-6.6 -18.21,-9.9 -28.06,-9.9 z M 9693.25,3227 c -18.01,0 -35.03,10.9 -41.93,28.7 -8.95,23.2 2.54,49.2 25.7,58.2 l 23.74,9.3 c 23.11,9 49.2,-2.3 58.31,-25.5 9.09,-23.1 -2.28,-49.2 -25.39,-58.3 l -24.19,-9.4 c -5.35,-2.1 -10.82,-3 -16.24,-3 z m -1969.68,-54 c -7.22,0 -14.53,1.7 -21.33,5.4 -21.85,11.8 -30,39.1 -18.21,60.9 3.94,7.3 7.81,14.7 11.61,22 0.7,1.4 1.48,2.7 2.32,4 -13.82,15.8 -15.11,39.6 -1.92,56.9 15.03,19.7 43.26,23.6 63.01,8.5 6.52,-5 13.1,-9.9 19.75,-14.7 20.1,-14.6 24.55,-42.7 9.96,-62.8 -2.45,-3.4 -5.26,-6.3 -8.35,-8.7 0.69,-8.2 -0.82,-16.6 -4.85,-24.4 -4.05,-7.9 -8.17,-15.7 -12.38,-23.5 -8.13,-15.1 -23.62,-23.6 -39.61,-23.6 z m -2608.94,-1.4 c -12.07,0 -24.11,4.9 -32.97,14.4 l -17.69,19.3 c -16.72,18.3 -15.39,46.8 2.97,63.5 18.36,16.7 46.8,15.4 63.53,-3 l 17.11,-18.6 c 16.89,-18.2 15.83,-46.7 -2.37,-63.6 -8.66,-8 -19.64,-12 -30.58,-12 z m 4385.91,-16.2 c -18.54,0 -35.91,11.6 -42.41,30 -8.25,23.5 4.04,49.1 27.45,57.4 l 24.02,8.5 c 23.28,8.3 49.13,-3.8 57.49,-27.2 8.38,-23.3 -3.79,-49.1 -27.18,-57.5 l -24.42,-8.6 c -4.94,-1.8 -9.98,-2.6 -14.95,-2.6 z m -1572.75,-27.3 c -6.8,0 -13.71,1.5 -20.2,4.8 -7.88,3.9 -15.76,8 -23.57,12.1 -21.95,11.6 -30.36,38.8 -18.77,60.8 11.62,21.9 38.77,30.4 60.78,18.7 7.3,-3.8 14.63,-7.6 22.01,-11.3 22.18,-11.2 31.11,-38.2 19.94,-60.4 -7.9,-15.7 -23.76,-24.7 -40.19,-24.7 z m 1377.38,-36.7 c -19.35,0 -37.22,12.6 -43.06,32.1 -7.13,23.8 6.39,48.8 30.18,56 l 24.22,7.3 c 23.69,7.3 48.9,-6 56.21,-29.7 7.32,-23.7 -5.98,-48.9 -29.71,-56.2 l -24.92,-7.6 c -4.29,-1.3 -8.63,-1.9 -12.92,-1.9 z m -1187.53,-41.8 c -4.67,0 -9.41,0.8 -14.1,2.3 -8.38,2.8 -16.77,5.6 -25.1,8.5 -23.43,8.3 -35.78,33.9 -27.55,57.4 8.23,23.4 33.88,35.8 57.31,27.5 7.83,-2.7 15.66,-5.4 23.54,-8 23.59,-7.8 36.39,-33.2 28.61,-56.8 -6.25,-18.9 -23.84,-30.9 -42.71,-30.9 z m 989.04,-11.5 c -20.43,0 -38.89,14 -43.74,34.7 -5.64,24.2 9.39,48.4 33.58,54.1 8.15,1.9 16.33,3.8 24.49,5.8 24.11,6 48.43,-8.9 54.37,-33 5.9,-24.1 -8.88,-48.4 -32.99,-54.3 -8.46,-2.1 -16.94,-4.1 -25.45,-6.1 -3.43,-0.8 -6.87,-1.2 -10.26,-1.2 z M 5260.3,3026.7 c -10.85,0 -21.74,3.9 -30.38,11.8 -6.42,5.9 -12.82,11.8 -19.19,17.8 -18.13,17 -19.07,45.4 -2.11,63.5 16.99,18.2 45.44,19.1 63.56,2.2 6.15,-5.8 12.32,-11.5 18.52,-17.2 18.3,-16.8 19.55,-45.2 2.76,-63.5 -8.87,-9.7 -20.99,-14.6 -33.16,-14.6 z m 2351.23,-25.8 c -9.6,0 -19.28,3 -27.46,9.4 -19.66,15.1 -23.27,43.4 -8.09,63 5.06,6.6 10.03,13.1 14.93,19.8 14.78,19.9 42.94,24.2 62.9,9.4 19.96,-14.8 24.19,-42.9 9.42,-62.9 -5.28,-7.1 -10.65,-14.2 -16.08,-21.3 -8.86,-11.4 -22.17,-17.4 -35.62,-17.4 z m 1293.45,-2 c -21.83,0 -41,15.9 -44.39,38.2 -3.76,24.5 13.1,47.5 37.64,51.2 l 24.92,4 c 24.57,4 47.63,-12.7 51.64,-37.2 3.99,-24.5 -12.65,-47.6 -37.14,-51.6 -8.6,-1.4 -17.21,-2.8 -25.82,-4.1 -2.31,-0.3 -4.59,-0.5 -6.85,-0.5 z m -588.2,0 c -2.69,0 -5.42,0.2 -8.16,0.7 -8.66,1.6 -17.34,3.3 -25.97,5 -24.36,4.9 -40.15,28.5 -35.28,52.9 4.87,24.4 28.81,40.2 52.9,35.3 8.18,-1.7 16.36,-3.2 24.56,-4.7 24.42,-4.5 40.6,-27.9 36.14,-52.4 -3.99,-21.6 -22.89,-36.8 -44.19,-36.8 z m 383.87,-21.4 c -23.69,0 -43.51,18.5 -44.84,42.5 -1.38,24.8 17.59,46 42.38,47.4 8.38,0.4 16.76,1 25.12,1.5 24.36,1.5 46.22,-17 47.9,-41.8 1.68,-24.8 -17.06,-46.2 -41.83,-47.9 -8.71,-0.6 -17.44,-1.1 -26.17,-1.6 -0.85,-0.1 -1.71,-0.1 -2.56,-0.1 z m -179.72,-1.4 c -0.6,0 -1.23,0.1 -1.85,0.1 l -26.48,1.3 c -24.79,1.4 -43.71,22.7 -42.28,47.5 1.43,24.8 22.31,43.7 47.5,42.3 l 24.92,-1.3 c 24.82,-1 44.11,-21.9 43.11,-46.7 -1,-24.2 -20.93,-43.2 -44.92,-43.2 z m -3103.25,-81.5 c -9.53,0 -19.14,3 -27.3,9.3 -6.94,5.3 -13.85,10.6 -20.71,16 -19.55,15.3 -22.98,43.6 -7.66,63.1 15.35,19.6 43.62,23 63.14,7.7 6.61,-5.2 13.25,-10.3 19.91,-15.4 19.71,-15.1 23.46,-43.3 8.37,-63.1 -8.86,-11.5 -22.22,-17.6 -35.75,-17.6 z m 2055.97,-45.9 c -11.97,0 -23.9,4.7 -32.74,14.1 -17.03,18.1 -16.18,46.6 1.9,63.6 6.01,5.7 11.96,11.4 17.86,17.2 17.74,17.4 46.18,17.1 63.59,-0.6 17.39,-17.7 17.13,-46.2 -0.59,-63.6 -6.34,-6.2 -12.74,-12.4 -19.2,-18.5 -8.69,-8.1 -19.76,-12.2 -30.82,-12.2 z m -1887.12,-71.1 c -8.13,0 -16.35,2.2 -23.75,6.8 -7.43,4.7 -14.81,9.3 -22.17,14 -20.91,13.4 -27,41.3 -13.59,62.2 13.42,20.9 41.26,26.9 62.12,13.5 7.05,-4.5 14.12,-8.9 21.22,-13.4 21.08,-13.1 27.51,-40.8 14.36,-61.9 -8.51,-13.7 -23.18,-21.2 -38.19,-21.2 z m 1726.95,-57.4 c -14.4,0 -28.56,6.9 -37.26,19.8 -13.93,20.5 -8.56,48.5 11.99,62.4 6.86,4.6 13.66,9.4 20.43,14.1 20.25,14.4 48.33,9.5 62.67,-10.8 14.32,-20.2 9.49,-48.3 -10.8,-62.6 -7.23,-5.1 -14.51,-10.2 -21.83,-15.1 -7.73,-5.3 -16.51,-7.8 -25.2,-7.8 z m -1547.14,-42 c -6.58,0 -13.25,1.5 -19.58,4.5 -7.88,3.8 -15.73,7.7 -23.55,11.6 -22.2,11.1 -31.21,38.1 -20.11,60.3 11.12,22.2 38.11,31.2 60.34,20.2 7.49,-3.8 14.99,-7.5 22.54,-11.1 22.35,-10.9 31.68,-37.8 20.86,-60.1 -7.77,-16.1 -23.8,-25.4 -40.5,-25.4 z m 1368.18,-58.6 c -17.08,0 -33.4,9.8 -40.94,26.3 -10.3,22.6 -0.32,49.3 22.27,59.6 7.5,3.4 14.97,6.9 22.41,10.5 22.36,10.8 49.23,1.4 60.01,-21 10.78,-22.4 1.37,-49.3 -21.02,-60.1 -7.99,-3.8 -16.03,-7.6 -24.11,-11.2 -6.05,-2.8 -12.38,-4.1 -18.62,-4.1 z M 5956,2599.1 c -4.98,0 -10.05,0.8 -15,2.6 -8.28,2.9 -16.55,5.9 -24.78,8.9 -23.29,8.7 -35.17,34.5 -26.55,57.8 8.62,23.3 34.49,35.2 57.79,26.6 7.81,-2.9 15.67,-5.7 23.55,-8.5 23.41,-8.3 35.67,-34 27.37,-57.4 -6.52,-18.5 -23.86,-30 -42.38,-30 z m 985.43,-49.5 c -19.66,0 -37.72,13 -43.27,32.8 -6.7,24 7.25,48.8 31.16,55.5 8.01,2.2 16,4.5 23.97,6.9 23.72,7.1 48.84,-6.5 55.94,-30.3 7.09,-23.8 -6.45,-48.8 -30.25,-55.9 -8.44,-2.5 -16.91,-5 -25.39,-7.3 -4.07,-1.2 -8.15,-1.7 -12.16,-1.7 z m -788.2,-8.2 c -3.37,0 -6.81,0.4 -10.25,1.2 -8.53,2 -17.06,4 -25.58,6.1 -24.1,6 -38.81,30.3 -32.85,54.5 5.98,24.1 30.34,38.8 54.46,32.8 8.11,-2 16.24,-3.9 24.4,-5.9 24.18,-5.6 39.22,-29.8 33.57,-54 -4.83,-20.7 -23.32,-34.7 -43.75,-34.7 z m 586.88,-32.6 c -22.25,0 -41.58,16.5 -44.53,39.2 -3.2,24.6 14.17,47.1 38.79,50.3 8.26,1.1 16.49,2.3 24.72,3.5 24.66,3.6 47.41,-13.4 51.02,-38 3.6,-24.6 -13.4,-47.4 -37.97,-51 -8.71,-1.3 -17.44,-2.5 -26.17,-3.6 -1.97,-0.3 -3.93,-0.4 -5.86,-0.4 z m -384.38,-2.3 c -1.7,0 -3.41,0.1 -5.13,0.3 -8.7,1 -17.4,2 -26.11,3.1 -24.64,3.1 -42.08,25.6 -38.95,50.3 3.13,24.6 25.78,42.2 50.27,38.9 8.31,-1 16.62,-2 24.93,-3 24.68,-2.8 42.41,-25.1 39.61,-49.7 -2.61,-23 -22.06,-39.9 -44.62,-39.9 z m 184.93,-10.5 h -5.82 c -24.83,0.2 -44.82,20.5 -44.66,45.3 0.18,24.7 20.28,44.7 44.96,44.7 0.11,0 0.21,0 0.32,0 l 24.81,0.1 c 0.2,0 0.4,0 0.6,0 24.57,0 44.63,-19.8 44.95,-44.4 0.33,-24.8 -19.54,-45.2 -44.37,-45.5 -6.94,-0.1 -13.86,-0.2 -20.79,-0.2"
         style="fill:#128C7E;fill-opacity:1;fill-rule:nonzero;stroke:none"
         id="path112" /><path
         d="m 16827.7,9021.7 c -351,-286.3 -669.7,-620.8 -1007.1,-923.7 -338.9,-304.3 -682.3,-603.5 -1029.7,-898.1 -32.1,-27.3 14.3,-73.4 46.3,-46.3 347.1,294.8 690.3,594.3 1029,898.8 335.1,301.4 696.9,597 999,931.9 23.2,25.7 -11.4,58.8 -37.5,37.4 v 0"
         style="fill:#128C7E;fill-opacity:1;fill-rule:nonzero;stroke:none"
         id="path114" /><path
         d="m 14514.5,7379.2 c 0.4,0 0.4,0.7 0,0.7 -0.5,0 -0.5,-0.7 0,-0.7 v 0"
         style="fill:#128C7E;fill-opacity:1;fill-rule:nonzero;stroke:none"
         id="path116" /><path
         d="m 13675.9,7921.8 c 83.4,-110.9 239.3,-181.5 353.9,-257.3 155.1,-102.7 310.4,-205.1 465.7,-307.5 16,-10.5 44.4,-0.9 47.5,19.3 4.1,27.3 4,37.7 -17.5,56.9 -24.9,22.4 -59.6,0.2 -53.9,-31.4 33,-181.9 79.1,-360 139.4,-534.9 15,11.6 30,23.1 45,34.7 -8,3.7 -16,7.4 -24,11.1 -14.4,6.7 -29.5,-4.2 -26.3,-20.2 1.8,-8.5 3.5,-17 5.3,-25.6 7.9,-38.5 71.7,-21.4 59.1,16.3 -58.6,175.6 -104.2,353.5 -136.3,535.8 -18,-10.5 -35.9,-20.9 -53.9,-31.4 0.2,2 0.5,4 0.7,5.9 15.8,6.5 31.7,12.9 47.5,19.4 -147.8,98.5 -295.7,196.7 -443.5,295.1 -117.7,78.2 -252.3,203.1 -390.7,237.3 -12.2,3 -26.9,-11.7 -18,-23.5 v 0"
         style="fill:#128C7E;fill-opacity:1;fill-rule:nonzero;stroke:none"
         id="path118" /><path
         d="m 14798.3,7197.9 c -53.2,-44.3 -92.2,-110.8 -131.5,-167.1 -26.3,-37.8 -85.8,-90.2 -62.6,-138.3 1.8,-3.8 6.3,-5.7 10.3,-5.9 50.2,-2.1 74.2,68.7 98.9,104.4 40.1,57.8 92.1,114.8 121.2,178.9 11,24 -15.6,45.3 -36.3,28 v 0"
         style="fill:#128C7E;fill-opacity:1;fill-rule:nonzero;stroke:none"
         id="path120" /><path
         d="m 14923.3,7094.4 c -77.3,-81.9 -194.5,-130 -288,-192.1 -28.2,-18.8 -3.1,-63 26.8,-45.8 65.4,37.8 129.4,78.8 193.3,119.2 38.8,24.5 93.9,49 101.8,98.9 3,18.5 -18.6,35.9 -33.9,19.8 v 0"
         style="fill:#128C7E;fill-opacity:1;fill-rule:nonzero;stroke:none"
         id="path122" /><path
         d="m 14802.8,7189.4 c 50.2,-66.3 124.2,-105.8 191.4,-154.1 88.5,-63.6 175.9,-128.6 262.2,-195.1 173.7,-133.9 342,-274.5 508.3,-417.4 27.7,-23.9 68.1,15.6 40.5,40.5 -163.8,147.7 -334,287.8 -508.6,422.6 -76.9,59.3 -154.6,117.5 -233.2,174.5 -76.4,55.4 -151.8,125.5 -243.3,151.4 -11.8,3.3 -25.6,-11.4 -17.3,-22.4 v 0"
         style="fill:#128C7E;fill-opacity:1;fill-rule:nonzero;stroke:none"
         id="path124" /><path
         d="m 16808.7,8974.5 c 7.2,-101 -97.1,-256.6 -137.6,-352.2 -40.6,-95.8 -80.9,-191.7 -121.3,-287.5 -85.4,-202.6 -170.9,-405.1 -256.4,-607.7 -85,-201.7 -170.1,-403.4 -255.2,-605.1 -89.4,-211.9 -202.2,-428.2 -267.8,-648.7 -8.1,-27.1 31.9,-44.2 45.8,-19.3 113.6,203.8 189.7,436.7 280.3,651.9 94.8,225.1 189.5,450.3 284.3,675.4 95.1,226 190.3,452 285.4,677.9 45.9,109.1 92.3,218 136.6,327.6 27.8,68.7 64.1,124.6 33.5,195.2 -5.9,13.4 -28.6,6.6 -27.6,-7.5 v 0"
         style="fill:#128C7E;fill-opacity:1;fill-rule:nonzero;stroke:none"
         id="path126" /><path
         d="M 16801.5,9021.3 C 16019.8,8504.2 15254.8,7968.9 14501.9,7411 c -30.3,-22.4 -0.8,-73.9 29.9,-51.1 364.9,270.6 726.1,547.4 1101.7,803.4 397.9,271.1 799.4,537 1195.7,810.6 28.8,19.8 2,67 -27.7,47.4 v 0"
         style="fill:#128C7E;fill-opacity:1;fill-rule:nonzero;stroke:none"
         id="path128" /><path
         d="m 16806.1,9017 c -278.4,-58.8 -554.5,-178 -824.4,-268.7 -265.3,-89.1 -530.4,-178.7 -795.4,-268.6 -260.4,-88.3 -520.6,-177.6 -779.3,-270.8 -133.3,-48 -266.2,-97 -398.5,-147.6 -97,-37.1 -228.5,-62.7 -307.9,-130.6 -10.4,-8.9 -11,-25.8 -4.8,-37.1 1.5,-2.8 3.1,-5.5 4.6,-8.3 6.9,-12.6 21.4,-16.6 34.5,-14.1 2.6,0.5 5.2,1 7.8,1.5 38.6,7.5 22.3,66.4 -16.2,59 21.8,-6.8 43.6,-13.6 65.5,-20.4 15.5,6.1 30.9,12.3 46.4,18.5 31.4,8.1 62.8,24.7 93.1,36.5 62.1,24.2 124.4,48.1 186.7,71.8 132.4,50.2 265.4,99 398.8,146.9 258.8,93 519,182.2 779.5,270.5 249.6,84.7 499.4,168.7 748.8,253.7 256.1,87.2 531.3,156.3 775.7,272.4 20.7,9.9 5.5,39.7 -14.9,35.4 v 0"
         style="fill:#128C7E;fill-opacity:1;fill-rule:nonzero;stroke:none"
         id="path130" /><path
         d="m 14423,6714.8 c -11.2,0 -22.4,4.1 -31.1,12.5 -17.9,17.1 -18.6,45.6 -1.4,63.6 l 18.1,18.7 c 17.4,17.8 45.9,18.1 63.6,0.8 17.8,-17.3 18.2,-45.8 0.8,-63.6 l -17.5,-18.2 c -8.9,-9.2 -20.7,-13.8 -32.5,-13.8 z m -135.6,-154.4 c -9.9,0 -19.9,3.2 -28.2,9.9 -19.3,15.6 -22.4,43.9 -6.8,63.2 5.5,6.8 11,13.6 16.5,20.3 15.8,19.2 44.2,21.9 63.3,6.2 19.2,-15.8 21.9,-44.2 6.1,-63.3 -5.3,-6.5 -10.6,-13.1 -15.9,-19.6 -8.9,-11 -21.9,-16.7 -35,-16.7 z m -122.2,-165.3 c -8.7,0 -17.5,2.5 -25.2,7.8 -20.5,13.9 -25.9,41.9 -12,62.4 l 14.8,21.6 c 14.1,20.4 42.1,25.5 62.6,11.4 20.4,-14.2 25.5,-42.2 11.4,-62.6 l -14.3,-20.9 c -8.7,-12.8 -22.9,-19.7 -37.3,-19.7 z m -108,-174.9 c -7.4,0 -15,1.9 -22,5.8 -21.6,12.2 -29.3,39.6 -17.2,61.2 l 13,22.7 c 12.3,21.6 39.8,29 61.3,16.6 21.6,-12.3 29,-39.8 16.6,-61.3 l -12.4,-22 c -8.3,-14.7 -23.6,-23 -39.3,-23 z m -92.9,-183.3 c -6.2,0 -12.5,1.3 -18.5,4.1 -22.6,10.2 -32.7,36.9 -22.4,59.5 3.6,7.9 7.3,15.9 11,23.8 10.5,22.5 37.3,32.2 59.8,21.6 22.5,-10.5 32.2,-37.3 21.7,-59.7 -3.6,-7.7 -7.1,-15.3 -10.6,-22.9 -7.5,-16.6 -23.9,-26.4 -41,-26.4 z m -76.8,-190.6 c -5,0 -10.1,0.8 -15,2.6 -23.4,8.3 -35.7,34 -27.4,57.4 l 8.8,24.6 c 8.5,23.3 34.3,35.3 57.7,26.8 23.3,-8.5 35.3,-34.3 26.8,-57.6 l -8.5,-23.9 c -6.6,-18.4 -23.9,-29.9 -42.4,-29.9 z m -59.7,-196.7 c -3.7,0 -7.4,0.5 -11.1,1.4 -24.1,6.1 -38.6,30.6 -32.5,54.7 2.2,8.4 4.4,16.9 6.6,25.4 6.4,24 31,38.3 55,31.8 24,-6.4 38.3,-31 31.9,-55 -2.2,-8.1 -4.3,-16.2 -6.3,-24.4 -5.2,-20.3 -23.5,-33.9 -43.6,-33.9 z m -41.3,-201.3 c -2.3,0 -4.5,0.2 -6.9,0.5 -24.5,3.8 -41.4,26.8 -37.6,51.3 1.4,8.7 2.8,17.4 4.3,26.1 4.1,24.4 27.3,41 51.8,36.8 24.5,-4.2 41,-27.4 36.8,-51.9 -1.4,-8.2 -2.7,-16.4 -4,-24.7 -3.4,-22.2 -22.6,-38.1 -44.4,-38.1 z m -21.7,-204.3 c -0.9,0 -1.8,0 -2.7,0.1 -24.8,1.4 -43.7,22.7 -42.2,47.5 l 1.6,26.1 c 1.7,24.7 23.4,43.3 47.9,41.8 24.8,-1.7 43.5,-23.1 41.8,-47.9 l -1.6,-25.3 c -1.4,-23.9 -21.2,-42.3 -44.8,-42.3 z m 2637,-153.5 c -1.5,0 -3.1,0 -4.7,0.2 -7.4,0.8 -14.8,1.3 -22.3,1.5 -24.8,0.7 -44.3,21.4 -43.6,46.2 0.7,24.9 22.1,44.7 46.3,43.7 9.7,-0.3 19.4,-0.9 29,-2 24.7,-2.5 42.6,-24.7 40,-49.4 -2.4,-23.1 -21.9,-40.2 -44.7,-40.2 z m -2638,-52 c -23.9,0 -43.7,18.8 -44.9,42.9 -0.4,8.7 -0.8,17.5 -1.1,26.2 -0.8,24.8 18.6,45.6 43.4,46.5 24.8,0.4 45.7,-18.5 46.5,-43.3 0.3,-8.4 0.7,-16.8 1.1,-25.2 1.1,-24.8 -18,-45.9 -42.8,-47 -0.8,-0.1 -1.5,-0.1 -2.2,-0.1 z m 2421.5,-10.2 c -13.3,0 -26.6,5.9 -35.4,17.2 -15.3,19.6 -11.9,47.8 7.7,63.2 7.7,6 15.6,11.7 23.8,17.1 20.7,13.7 48.6,7.9 62.3,-12.8 13.7,-20.7 7.9,-48.6 -12.8,-62.3 -6.1,-4 -12.1,-8.3 -17.9,-12.9 -8.2,-6.4 -18,-9.5 -27.7,-9.5 z m 404.7,-14 c -9.3,0 -18.6,2.8 -26.7,8.8 -6.2,4.6 -12.5,9 -18.9,13.1 -20.8,13.6 -26.7,41.5 -13.1,62.3 13.6,20.8 41.4,26.7 62.2,13.1 7.9,-5.2 15.7,-10.6 23.3,-16.2 20,-14.8 24.2,-43 9.4,-62.9 -8.8,-11.9 -22.4,-18.2 -36.2,-18.2 z m 1610.7,-87.7 c -22.5,0 -41.9,16.8 -44.7,39.7 -0.9,8.2 -2,16.5 -3.1,24.7 -3.4,24.6 13.9,47.3 38.5,50.6 24.7,3.4 47.3,-13.9 50.6,-38.5 1.2,-8.7 2.3,-17.5 3.4,-26.3 2.9,-24.6 -14.8,-47 -39.4,-49.9 -1.8,-0.2 -3.6,-0.3 -5.3,-0.3 z m -1477,-66.5 c -16,0 -31.5,8.6 -39.6,23.6 -3.7,6.8 -7.5,13.4 -11.6,20 -13.1,21.1 -6.5,48.8 14.6,61.9 21.2,13.1 48.9,6.5 61.9,-14.6 5,-8.1 9.7,-16.3 14.2,-24.6 11.8,-21.8 3.6,-49.1 -18.2,-60.9 -6.8,-3.7 -14.1,-5.4 -21.3,-5.4 z m -832.5,-2.7 c -2.3,0 -4.6,0.2 -6.9,0.6 -7.3,1.1 -14.7,1.9 -22.1,2.5 -24.8,1.9 -43.3,23.6 -41.4,48.3 1.9,24.8 23.4,43.5 48.3,41.4 9.8,-0.8 19.4,-1.9 29,-3.4 24.5,-3.8 41.3,-26.8 37.5,-51.3 -3.5,-22.2 -22.6,-38.1 -44.4,-38.1 z m -2107.3,-22 c -21.2,0 -39.7,14.3 -43.5,35.9 l -0.6,3.9 c -1.2,7.3 -2.4,15.1 -3.5,23 -3.5,24.6 13.6,47.4 38.2,50.8 24.7,3.5 47.4,-13.6 50.8,-38.2 1.1,-7.4 2.2,-14.7 3.4,-22.1 3.8,-24.4 -12.5,-48.6 -36.8,-52.7 -2.7,-0.4 -5.4,-0.6 -8,-0.6 z m 1882.6,-15 c -16.5,0 -32.3,9.1 -40.2,24.9 -11.2,22.2 -2.2,49.2 20,60.3 8.6,4.3 17.3,8.3 26.1,12 23,9.6 49.3,-1.2 58.9,-24.1 9.6,-22.9 -1.2,-49.2 -24.1,-58.8 -7,-2.9 -13.9,-6.1 -20.6,-9.5 -6.4,-3.2 -13.3,-4.8 -20.1,-4.8 z m 395.3,-66.1 c -14.7,0 -29.2,7.2 -37.8,20.5 -3.7,5.7 -7.7,11.1 -12,16.2 -15.9,19.1 -13.4,47.5 5.7,63.4 10.9,9.1 25,12.1 37.9,9.5 -20.2,8.4 -31.8,30.5 -26.3,52.4 2.4,9.7 5.3,19.3 8.7,28.8 8.3,23.4 34,35.6 57.4,27.2 23.4,-8.3 35.6,-34 27.3,-57.4 -2.4,-6.7 -4.5,-13.5 -6.2,-20.3 -5.8,-23.5 -29,-38.1 -52.6,-33.2 6.4,-2.7 12.3,-7 17.1,-12.7 6.6,-7.9 12.8,-16.3 18.5,-25 13.5,-20.9 7.5,-48.7 -13.3,-62.2 -7.6,-4.9 -16,-7.2 -24.4,-7.2 z m 2146.9,-32.9 c -0.6,0 -1.2,0 -1.8,0 -24.8,1 -44.1,21.9 -43.2,46.7 0.3,8.3 0.6,16.6 0.7,24.9 0.5,24.8 21.8,45 45.9,44 24.8,-0.5 44.6,-21 44.1,-45.9 -0.2,-8.8 -0.5,-17.6 -0.8,-26.4 -0.9,-24.3 -20.9,-43.3 -44.9,-43.3 z m -2687.2,-41.6 c -7,0 -14.1,1.6 -20.8,5.1 -22,11.5 -30.5,38.7 -19,60.7 4.1,7.9 8.6,15.8 13.2,23.6 l 1.5,2.4 c 12.9,19.8 39.3,26.4 60.1,14.5 21.5,-12.3 29,-39.7 16.7,-61.3 -0.4,-0.6 -0.8,-1.4 -1.3,-2.2 -3.7,-6.1 -7.2,-12.4 -10.5,-18.7 -8.1,-15.4 -23.7,-24.1 -39.9,-24.1 z m 1261.7,-15.2 c -22.4,0 -41.8,16.8 -44.6,39.6 -0.9,7.9 -2.1,15.8 -3.3,23.7 -4,24.5 12.7,47.6 37.2,51.5 24.6,4.1 47.6,-12.7 51.6,-37.2 1.4,-9.1 2.7,-18.1 3.8,-27.2 3,-24.7 -14.6,-47.1 -39.2,-50 -1.9,-0.3 -3.7,-0.4 -5.5,-0.4 z m -2954.7,-31.1 c -19.7,0 -37.7,13 -43.3,32.8 -2.4,8.5 -4.7,16.9 -6.9,25.4 -6.4,24 8,48.6 32,55 24.1,6.3 48.6,-8 54.9,-32 2.2,-8.1 4.4,-16.1 6.6,-24.1 6.7,-24 -7.3,-48.8 -31.2,-55.5 -4,-1.1 -8.1,-1.6 -12.1,-1.6 z m 4356.8,-116.1 c -2.8,0 -5.7,0.2 -8.5,0.8 -24.4,4.6 -40.4,28.2 -35.8,52.6 1.6,8.1 3.1,16.2 4.4,24.4 4.2,24.4 27.3,40.9 51.9,36.8 24.5,-4.2 41,-27.4 36.8,-51.9 -1.5,-8.7 -3.1,-17.5 -4.7,-26.2 -4.1,-21.5 -23,-36.5 -44.1,-36.5 z m -2714.4,-35.1 c -0.5,0 -1.1,0 -1.7,0 -24.8,1 -44.1,21.9 -43.2,46.7 0.3,9.3 0.9,18.6 1.8,27.9 2.1,24.7 23.8,43.1 48.7,40.8 24.8,-2.2 43,-24 40.8,-48.8 -0.6,-7.7 -1.1,-15.5 -1.4,-23.3 -1,-24.3 -20.9,-43.3 -45,-43.3 z m 1308.3,-22.6 c -2.2,0 -4.3,0.2 -6.5,0.5 -24.6,3.5 -41.6,26.3 -38.1,50.9 1.2,8.1 2.3,16.2 3.2,24.3 3,24.7 25.4,42.3 50,39.4 24.6,-2.9 42.3,-25.3 39.3,-49.9 -1,-8.9 -2.2,-17.8 -3.5,-26.7 -3.2,-22.4 -22.5,-38.5 -44.4,-38.5 z m -2884,-20.6 c -17.7,0 -34.5,10.6 -41.6,28 -3.4,8.2 -6.6,16.3 -9.8,24.5 -9,23.2 2.4,49.3 25.5,58.3 23.1,9 49.2,-2.4 58.3,-25.6 3,-7.7 6.1,-15.5 9.2,-23.2 9.4,-23 -1.6,-49.2 -24.6,-58.6 -5.6,-2.3 -11.3,-3.4 -17,-3.4 z m 4237.5,-120.3 c -4.8,0 -9.7,0.7 -14.5,2.4 -23.5,8 -36.1,33.5 -28.1,57 2.7,8 5.3,15.9 7.9,23.9 7.7,23.6 33.1,36.5 56.7,28.8 23.7,-7.7 36.6,-33.1 28.8,-56.7 -2.7,-8.3 -5.4,-16.6 -8.2,-24.9 -6.4,-18.7 -23.9,-30.5 -42.6,-30.5 z M 15496,4279.1 c -19.8,0 -37.9,13.1 -43.4,33.1 -2.4,8.7 -4.6,17.5 -6.7,26.3 -5.7,24.2 9.2,48.4 33.4,54.2 24.1,5.8 48.4,-9.2 54.1,-33.3 1.9,-7.9 3.9,-15.7 6,-23.5 6.5,-24 -7.6,-48.7 -31.5,-55.3 -4,-1 -8,-1.5 -11.9,-1.5 z m 1233.4,-18.5 c -5,0 -10,0.8 -15,2.6 -23.4,8.2 -35.7,33.9 -27.4,57.3 2.7,7.8 5.3,15.5 7.9,23.4 7.7,23.5 33,36.5 56.6,28.7 23.7,-7.7 36.6,-33.1 28.8,-56.7 -2.7,-8.4 -5.6,-16.9 -8.5,-25.2 -6.5,-18.5 -23.9,-30.1 -42.4,-30.1 z m -2746.2,-7.1 c -16,0 -31.5,8.5 -39.6,23.6 -4.2,7.6 -8.3,15.3 -12.3,23 -11.6,22 -3.2,49.2 18.8,60.8 22,11.6 49.2,3.1 60.8,-18.8 3.9,-7.5 7.8,-14.9 11.8,-22.3 11.8,-21.8 3.7,-49.1 -18.2,-60.9 -6.8,-3.7 -14.1,-5.4 -21.3,-5.4 z m 4070.1,-124.2 c -6.8,0 -13.7,1.5 -20.2,4.8 -22.1,11.1 -31.1,38.1 -20,60.3 3.8,7.5 7.4,14.9 11,22.4 10.8,22.4 37.7,31.8 60,21.1 22.4,-10.8 31.8,-37.6 21.1,-60 -3.9,-8 -7.7,-15.9 -11.7,-23.8 -7.9,-15.7 -23.7,-24.8 -40.2,-24.8 z m -2481.7,-41 c -16.2,0 -31.9,8.8 -39.9,24.1 -4.2,7.9 -8.2,15.9 -12.2,23.9 -10.9,22.3 -1.7,49.3 20.6,60.2 22.2,11 49.2,1.8 60.1,-20.5 3.7,-7.3 7.4,-14.7 11.2,-21.9 11.5,-22 3,-49.2 -19,-60.7 -6.7,-3.5 -13.8,-5.1 -20.8,-5.1 z m -1480.5,-9.8 c -14.3,0 -28.3,6.8 -37,19.3 -5,7.2 -10,14.5 -14.9,21.7 -13.9,20.6 -8.5,48.6 12.1,62.5 20.6,13.9 48.6,8.4 62.4,-12.1 4.7,-7 9.4,-13.9 14.2,-20.8 14.2,-20.3 9.2,-48.4 -11.2,-62.5 -7.9,-5.5 -16.8,-8.1 -25.6,-8.1 z m 2553.8,-4.8 c -7.5,0 -15,1.9 -21.9,5.8 -21.7,12.1 -29.4,39.5 -17.3,61.2 4,7.2 8,14.4 11.9,21.7 11.7,21.9 38.9,30.2 60.8,18.5 21.9,-11.7 30.2,-39 18.5,-60.9 -4.2,-7.8 -8.4,-15.5 -12.7,-23.2 -8.3,-14.7 -23.6,-23.1 -39.3,-23.1 z M 17949,3952.3 c -8.7,0 -17.6,2.6 -25.3,7.9 -20.5,14 -25.8,42 -11.7,62.5 4.7,6.8 9.3,13.7 13.9,20.7 13.6,20.7 41.5,26.4 62.3,12.7 20.7,-13.6 26.4,-41.5 12.7,-62.3 -4.8,-7.3 -9.7,-14.7 -14.7,-22 -8.7,-12.7 -22.8,-19.5 -37.2,-19.5 z m -3731.6,-35.9 c -12.5,0 -24.9,5.2 -33.8,15.4 -5.8,6.6 -11.6,13.3 -17.3,20 -16,19 -13.7,47.3 5.2,63.4 19,16.1 47.3,13.7 63.4,-5.2 5.4,-6.4 10.8,-12.7 16.3,-19 16.4,-18.6 14.5,-47.1 -4.2,-63.4 -8.5,-7.5 -19.1,-11.2 -29.6,-11.2 z m 1464.7,-1.2 c -13.6,0 -27,6.1 -35.8,17.7 -5.4,7.1 -10.7,14.2 -16,21.4 -14.6,20.1 -10.2,48.2 9.9,62.8 20,14.7 48.2,10.3 62.8,-9.8 4.9,-6.7 9.8,-13.3 14.8,-19.9 15,-19.7 11.3,-47.9 -8.5,-63 -8.2,-6.2 -17.7,-9.2 -27.2,-9.2 z m 848.1,-11.7 c -9.8,0 -19.7,3.2 -28,9.8 -19.4,15.5 -22.6,43.8 -7.1,63.2 5.2,6.5 10.3,13 15.3,19.6 15.2,19.7 43.5,23.4 63.1,8.3 19.7,-15.2 23.4,-43.4 8.2,-63.1 -5.4,-7 -10.8,-14 -16.3,-20.9 -8.9,-11.1 -22,-16.9 -35.2,-16.9 z m 1291.5,-112.3 c -10.8,0 -21.6,3.8 -30.3,11.7 -18.3,16.7 -19.7,45.1 -2.9,63.5 5.6,6.1 11.1,12.3 16.5,18.6 16.4,18.6 44.9,20.4 63.5,4 18.6,-16.4 20.5,-44.8 4.1,-63.4 -5.8,-6.6 -11.7,-13.2 -17.6,-19.7 -8.9,-9.8 -21.1,-14.7 -33.3,-14.7 z m -3460.6,-21.6 c -10.8,0 -21.6,3.8 -30.2,11.7 -6.5,5.9 -13,11.9 -19.4,17.9 -18.1,17 -19,45.5 -2,63.6 17,18.1 45.4,19 63.6,2 6,-5.7 12.1,-11.4 18.3,-17 18.4,-16.7 19.7,-45.1 3,-63.5 -8.9,-9.8 -21,-14.7 -33.3,-14.7 z m 1457.5,-7.7 c -11.2,0 -22.4,4.2 -31.1,12.6 -6.4,6.1 -12.8,12.3 -19,18.6 -17.6,17.5 -17.6,46 0,63.6 17.6,17.5 46,17.5 63.6,0 5.8,-5.9 11.7,-11.7 17.7,-17.4 17.9,-17.2 18.5,-45.7 1.3,-63.6 -8.9,-9.1 -20.7,-13.8 -32.5,-13.8 z m 571.6,-8.6 c -12.1,0 -24.2,4.8 -33,14.4 -16.9,18.3 -15.8,46.7 2.5,63.6 6.1,5.6 12.2,11.3 18.2,17.1 17.9,17.1 46.4,16.5 63.6,-1.5 17.1,-17.9 16.5,-46.4 -1.5,-63.6 -6.4,-6.1 -12.8,-12.1 -19.3,-18.1 -8.6,-8 -19.6,-11.9 -30.5,-11.9 z m 1282.9,-103.8 c -13,0 -25.8,5.6 -34.7,16.3 -15.8,19.2 -13.1,47.5 6.1,63.3 6.3,5.3 12.7,10.7 19,16.1 18.9,16.1 47.3,13.9 63.4,-5 16.1,-18.9 13.9,-47.3 -5,-63.4 -6.7,-5.8 -13.4,-11.4 -20.2,-17 -8.4,-6.9 -18.5,-10.3 -28.6,-10.3 z m -3152.1,-9 c -9,0 -18.1,2.7 -26,8.3 -7.2,5.1 -14.4,10.3 -21.5,15.5 -20,14.8 -24.2,42.9 -9.5,62.9 14.7,20 42.9,24.3 62.9,9.5 6.7,-4.9 13.4,-9.8 20.2,-14.6 20.3,-14.4 25,-42.5 10.6,-62.7 -8.8,-12.3 -22.6,-18.9 -36.7,-18.9 z m 1455.6,-9.7 c -9,0 -18.1,2.7 -26,8.4 -7.2,5.1 -14.4,10.3 -21.5,15.5 -19.9,14.8 -24.1,43 -9.3,63 14.8,19.9 43,24.1 62.9,9.3 6.6,-4.9 13.4,-9.8 20.1,-14.6 20.2,-14.5 24.9,-42.6 10.5,-62.8 -8.8,-12.3 -22.6,-18.8 -36.7,-18.8 z m 253.1,-5.7 c -14.3,0 -28.4,6.8 -37.1,19.5 -14.1,20.4 -8.9,48.4 11.5,62.5 6.9,4.7 13.7,9.5 20.5,14.3 20.2,14.5 48.3,9.7 62.7,-10.5 14.4,-20.2 9.8,-48.3 -10.5,-62.7 -7.1,-5.1 -14.4,-10.2 -21.7,-15.2 -7.8,-5.4 -16.6,-7.9 -25.4,-7.9 z m -1534.3,-93.2 c -7.2,0 -14.4,1.8 -21.2,5.4 -7.8,4.2 -15.5,8.4 -23.2,12.7 -21.7,12.1 -29.4,39.5 -17.3,61.2 12.1,21.7 39.4,29.5 61.2,17.3 7.2,-4 14.5,-8 21.8,-12 21.9,-11.7 30.1,-39 18.4,-60.8 -8.1,-15.2 -23.6,-23.8 -39.7,-23.8 z m 2809.8,-0.6 c -15.4,0 -30.3,7.9 -38.7,22.1 -12.7,21.3 -5.7,48.9 15.7,61.6 7.1,4.2 14.2,8.5 21.2,12.8 21.1,13.2 48.8,6.6 61.9,-14.4 13.1,-21.2 6.6,-48.9 -14.5,-62 -7.5,-4.6 -15.1,-9.2 -22.7,-13.8 -7.2,-4.2 -15.1,-6.3 -22.9,-6.3 z m -1452.3,-11 c -16.5,0 -32.3,9 -40.2,24.7 -11.2,22.2 -2.3,49.2 19.9,60.4 7.4,3.7 14.8,7.5 22.1,11.4 14.9,7.8 32.2,6.5 45.4,-2 13.7,11.6 33.7,14.2 50.4,5.1 7.3,-3.9 14.7,-7.9 22.1,-11.7 22,-11.5 30.5,-38.7 19,-60.7 -11.5,-22 -38.6,-30.5 -60.7,-19 -7.8,4.1 -15.6,8.2 -23.3,12.4 -1,0.6 -2,1.1 -2.9,1.7 -2.5,-2 -5.2,-3.8 -8.1,-5.4 -7.8,-4.1 -15.6,-8.1 -23.5,-12.1 -6.5,-3.3 -13.4,-4.8 -20.2,-4.8 z M 14882.3,3447 c -5.3,0 -10.6,0.9 -15.9,2.9 -8.2,3.1 -16.4,6.2 -24.6,9.5 -23,9.1 -34.3,35.2 -25.2,58.3 9.1,23.1 35.2,34.4 58.4,25.3 7.7,-3.1 15.4,-6.1 23.2,-9 23.2,-8.8 35,-34.7 26.2,-57.9 -6.8,-18 -23.9,-29.1 -42.1,-29.1 z m 2438.5,-6.1 c -18,0 -34.9,10.8 -41.9,28.5 -9.1,23.2 2.3,49.2 25.4,58.3 7.7,3.1 15.4,6.2 23,9.4 23,9.5 49.3,-1.4 58.8,-24.3 9.6,-22.9 -1.3,-49.2 -24.2,-58.8 -8.2,-3.4 -16.5,-6.7 -24.7,-10 -5.4,-2.1 -11,-3.1 -16.4,-3.1 z m -980.9,0 c -5.1,0 -10.2,0.8 -15.2,2.6 -8.3,3 -16.6,6.1 -24.9,9.2 -23.2,8.8 -34.9,34.8 -26.1,58 8.9,23.3 34.8,34.9 58,26.1 7.8,-2.9 15.5,-5.8 23.4,-8.6 23.4,-8.4 35.5,-34.1 27.1,-57.5 -6.6,-18.4 -23.9,-29.8 -42.3,-29.8 z m -476.2,-0.9 c -18.6,0 -36,11.7 -42.5,30.3 -8.1,23.5 4.3,49.1 27.8,57.2 7.8,2.7 15.6,5.5 23.4,8.4 23.4,8.6 49.2,-3.4 57.7,-26.7 8.6,-23.3 -3.4,-49.2 -26.7,-57.7 -8.3,-3.1 -16.6,-6.1 -25,-9 -4.8,-1.7 -9.8,-2.5 -14.7,-2.5 z m -784.6,-51.8 c -3.3,0 -6.6,0.4 -9.9,1.1 -8.6,2 -17.2,3.9 -25.8,6 -24.1,5.9 -38.9,30.2 -33.1,54.3 5.8,24.1 29.9,39 54.3,33.1 8,-1.9 16.1,-3.8 24.2,-5.6 24.2,-5.4 39.5,-29.4 34.1,-53.7 -4.7,-20.9 -23.2,-35.2 -43.8,-35.2 z m 586.5,-2.5 c -21,0 -39.7,14.7 -44,36 -5,24.3 10.7,48.1 35,53 8.2,1.7 16.3,3.4 24.4,5.2 24.2,5.3 48.3,-10 53.6,-34.2 5.4,-24.3 -9.9,-48.3 -34.2,-53.6 -8.6,-1.9 -17.2,-3.8 -25.8,-5.5 -3,-0.6 -6,-0.9 -9,-0.9 z m 871.8,-1.2 c -3.1,0 -6.2,0.4 -9.4,1 -8.6,1.9 -17.2,3.8 -25.8,5.8 -24.2,5.6 -39.3,29.7 -33.7,53.9 5.6,24.2 29.8,39.3 53.9,33.7 8.1,-1.9 16.2,-3.7 24.4,-5.4 24.2,-5.2 39.8,-29 34.6,-53.3 -4.5,-21.2 -23.2,-35.7 -44,-35.7 z m 586.6,-2.7 c -20.7,0 -39.3,14.4 -43.9,35.6 -5.2,24.2 10.3,48.1 34.6,53.3 8.1,1.8 16.1,3.6 24.2,5.5 24.1,5.6 48.4,-9.3 54.1,-33.5 5.6,-24.2 -9.4,-48.4 -33.5,-54.1 -8.7,-2 -17.3,-3.9 -26,-5.8 -3.2,-0.7 -6.3,-1 -9.5,-1 z M 15282.3,3359 c -1,0 -2,0 -3,0.1 -8.8,0.6 -17.6,1.3 -26.4,2 -24.8,2.1 -43.1,23.9 -41,48.6 2.1,24.8 23.6,43.2 48.6,41 8.2,-0.7 16.5,-1.3 24.8,-1.9 24.7,-1.6 43.5,-23 41.9,-47.8 -1.6,-23.8 -21.4,-42 -44.9,-42 z m 179.7,-0.3 c -23.6,0 -43.4,18.4 -44.9,42.2 -1.5,24.8 17.4,46.1 42.2,47.7 8.2,0.5 16.5,1 24.8,1.7 24.4,1.9 46.4,-16.5 48.3,-41.3 2,-24.7 -16.5,-46.4 -41.2,-48.3 -8.8,-0.7 -17.6,-1.4 -26.4,-1.9 -1,-0.1 -1.9,-0.1 -2.8,-0.1 z m 1278.9,-2.9 c -1.1,0 -2.2,0 -3.2,0.1 -8.9,0.6 -17.7,1.3 -26.5,2.1 -24.7,2.2 -43,24 -40.8,48.7 2.2,24.8 23.9,43.3 48.7,40.9 8.3,-0.8 16.6,-1.4 24.9,-2 24.8,-1.7 43.4,-23.2 41.7,-48 -1.7,-23.7 -21.4,-41.8 -44.8,-41.8 z m 179.6,-1.3 c -23.6,0 -43.5,18.5 -44.8,42.4 -1.5,24.8 17.5,46 42.3,47.4 8.2,0.5 16.5,1.1 24.7,1.7 24.9,2 46.4,-16.6 48.3,-41.4 1.9,-24.8 -16.6,-46.4 -41.4,-48.3 -8.8,-0.6 -17.6,-1.2 -26.5,-1.7 -0.9,-0.1 -1.7,-0.1 -2.6,-0.1"
         style="fill:#128C7E;fill-opacity:1;fill-rule:nonzero;stroke:none"
         id="path132" /></g></g></svg>
